<?xml version="1.0" encoding="utf-8"?>
<!-- Generator: Adobe Illustrator 26.3.0, SVG Export Plug-In . SVG Version: 6.00 Build 0)  -->
<svg version="1.1" id="Capa_1" xmlns="http://www.w3.org/2000/svg" xmlns:xlink="http://www.w3.org/1999/xlink" x="0px" y="0px"
	 viewBox="0 0 600 600" style="enable-background:new 0 0 600 600;" xml:space="preserve">
<style type="text/css">
	.st0{fill:#FEA42F;}
	.st1{fill:#343434;}
	.st2{fill:#FFFFFF;}
</style>
<path class="st0" d="M-386.4,187.5l-3.2,26.1c-29.7,17-38.1,45.7-43.4,72.7c-31.5,1.4-52.7,28.2-52.7,28.2h321.4
	C-164.2,231.8-241.9,143.8-386.4,187.5z M-377.7,192.6c59.4-18,105.6-10.1,137.7,10.9c-13-2.6-33.5-4.2-68.7-5.2
	c-30.8-0.9-53.7,3.1-70.8,10.3C-379.3,204.3-378.7,197.6-377.7,192.6z"/>
<g>
	<path class="st1" d="M-161.9,239.8c-61.3-85.2-173-93-232.5-82.6c0,0-29.7,15.2-23.7,34.3c2,2.2,2.8,5.4,1.7,8.4l-5.4,15.6
		c-1.5,4.4-6.3,6.8-10.8,5.2l-30.9-10.6c-4.4-1.5-6.8-6.4-5.2-10.8l5.4-15.6c1.4-4.1,5.6-6.4,9.6-5.5c17-9.8,5.8-41.3,5.8-41.3
		c-1.3-26.1,9.5-55.7,71.8-65.6c-18.4,17.9-12,49,1.7,49.8l0,0C-319.7,122.8-218.4,147.9-161.9,239.8z"/>
	<path class="st1" d="M-154.4,210.6c-43.1-53-81.9-88-135.3-108.7c-6.9,5.6-15.8,9-25.4,9c-22.2,0-40.2-17.8-40.6-39.9l33.6,16.4
		c3.9,1.9,8.7,0.3,10.6-3.7l9.3-19c1.9-3.9,0.3-8.7-3.7-10.6l-33.5-16.3c6.8-5,15.1-8,24.2-8c22.4,0,40.6,18.2,40.6,40.6
		c0,0.8,0,1.6-0.1,2.4C-217,103-175.1,157.6-154.4,210.6z"/>
	<g>
		<path class="st1" d="M-506.3,352.4h-25.3v12.7h20v10.6h-20V398h-13.1v-56.8h38.4V352.4z"/>
		<path class="st1" d="M-461.3,352H-487v11.6h20.2v10.7H-487v12.4h25.7V398h-38.5v-56.8h38.5V352z"/>
		<path class="st1" d="M-440.9,375.5V398h-12.7v-56.8h23.7c4.4,0,7.9,0.5,10.5,1.6s4.8,3,6.6,5.9c1.7,2.9,2.6,6,2.6,9.5
			c0,6.8-3.1,11.7-9.4,14.7l10,25.1h-14l-8.3-22.5H-440.9z M-440.9,351.3v14.5h7.7c2.5,0,4.4-0.2,5.5-0.6s2.2-1.2,3.1-2.5
			c0.9-1.3,1.3-2.8,1.3-4.4c0-1.6-0.4-3-1.3-4.2c-0.9-1.2-1.9-2-2.9-2.3c-1.1-0.3-3-0.4-5.9-0.4H-440.9z"/>
		<path class="st1" d="M-387.7,375.5V398h-12.7v-56.8h23.7c4.4,0,7.9,0.5,10.5,1.6s4.8,3,6.6,5.9c1.7,2.9,2.6,6,2.6,9.5
			c0,6.8-3.1,11.7-9.4,14.7l10,25.1h-14l-8.3-22.5H-387.7z M-387.7,351.3v14.5h7.7c2.5,0,4.4-0.2,5.5-0.6c1.1-0.4,2.2-1.2,3.1-2.5
			c0.9-1.3,1.3-2.8,1.3-4.4c0-1.6-0.4-3-1.3-4.2c-0.9-1.2-1.9-2-2.9-2.3s-3-0.4-5.9-0.4H-387.7z"/>
		<path class="st1" d="M-308.7,352h-25.7v11.6h20.2v10.7h-20.2v12.4h25.7V398h-38.5v-56.8h38.5V352z"/>
		<path class="st1" d="M-266.9,341.2v11.2h-13.4V398h-12.8v-45.5h-13.4v-11.2H-266.9z"/>
		<path class="st1" d="M-223,352h-25.7v11.6h20.2v10.7h-20.2v12.4h25.7V398h-38.5v-56.8h38.5V352z"/>
		<path class="st1" d="M-202.7,375.5V398h-12.7v-56.8h23.7c4.4,0,7.9,0.5,10.5,1.6s4.8,3,6.6,5.9c1.7,2.9,2.6,6,2.6,9.5
			c0,6.8-3.1,11.7-9.4,14.7l10,25.1h-14l-8.3-22.5H-202.7z M-202.7,351.3v14.5h7.7c2.5,0,4.4-0.2,5.5-0.6s2.2-1.2,3.1-2.5
			c0.9-1.3,1.3-2.8,1.3-4.4c0-1.6-0.4-3-1.3-4.2s-1.9-2-2.9-2.3c-1.1-0.3-3-0.4-5.9-0.4H-202.7z"/>
		<path class="st1" d="M-149.6,341.2V398h-12.6v-56.8H-149.6z"/>
		<path class="st1" d="M-112.2,341.2l16.9,56.8h-13.6l-3.3-11.7h-17.4l-3.4,11.7h-11.1l17.3-56.8H-112.2z M-126.7,375.8h11.4
			l-5.7-19.9L-126.7,375.8z"/>
	</g>
	<g>
		<path class="st1" d="M-487.2,513.9l-4.9-16.9v16.9h-3.9v-20.7h7.2l3.5,12.4l3.6-12.4h7.2v20.7h-4.6v-16.9l-4.9,16.9H-487.2z"/>
		<path class="st1" d="M-465.9,493.2v20.7h-4.6v-20.7H-465.9z"/>
		<path class="st1" d="M-446.8,493.2v20.7h-3.9l-7.7-14c0,0.4,0,0.6,0,0.7c0,0.4,0.1,0.7,0.1,0.9v12.4h-3.6v-20.7h5l6.7,12.2
			c-0.1-0.6-0.1-1.1-0.1-1.4v-10.8H-446.8z"/>
		<path class="st1" d="M-428.8,497.2h-9.4v4.2h7.4v3.9h-7.4v4.5h9.4v4.1h-14v-20.7h14V497.2z"/>
		<path class="st1" d="M-421.4,505.7v8.2h-4.6v-20.7h8.6c1.6,0,2.9,0.2,3.8,0.6c1,0.4,1.8,1.1,2.4,2.1c0.6,1,1,2.2,1,3.5
			c0,2.5-1.1,4.3-3.4,5.3l3.6,9.1h-5.1l-3-8.2H-421.4z M-421.4,496.9v5.3h2.8c0.9,0,1.6-0.1,2-0.2s0.8-0.4,1.1-0.9s0.5-1,0.5-1.6
			c0-0.6-0.2-1.1-0.5-1.5c-0.3-0.5-0.7-0.7-1.1-0.8c-0.4-0.1-1.1-0.2-2.2-0.2H-421.4z"/>
		<path class="st1" d="M-400.9,486.1l1.1,2.5l-6.3,2.8l-0.7-1.7L-400.9,486.1z M-402.1,493.2v20.7h-4.6v-20.7H-402.1z"/>
		<path class="st1" d="M-388.5,493.2l6.2,20.7h-5l-1.2-4.3h-6.4l-1.2,4.3h-4l6.3-20.7H-388.5z M-393.7,505.8h4.2l-2.1-7.3
			L-393.7,505.8z"/>
		<path class="st1" d="M-358.6,493.2l-6.2,12v8.7h-4.6v-8.7l-6.2-12h5.3l3.7,7.8l3.7-7.8H-358.6z"/>
		<path class="st1" d="M-334.2,500.9l-4.8,0.3c-0.1-2.9-1.1-4.4-3.2-4.4c-2.4,0-3.6,2.2-3.6,6.7c0,2.6,0.3,4.4,1,5.3
			c0.7,0.9,1.6,1.4,2.7,1.4c1.9,0,3.1-1.3,3.5-3.9l4.5,0.3c-0.3,2.5-1.2,4.4-2.6,5.6c-1.5,1.3-3.3,1.9-5.4,1.9
			c-2.6,0-4.7-0.9-6.3-2.8c-1.6-1.9-2.4-4.5-2.4-7.8c0-3.1,0.8-5.7,2.4-7.7c1.6-2,3.7-3,6.5-3C-337.5,492.9-334.8,495.6-334.2,500.9
			z"/>
		<path class="st1" d="M-324.2,514.2c-2.6,0-4.7-1-6.1-3.1c-1.4-2.1-2.2-4.6-2.2-7.6c0-3,0.7-5.5,2.2-7.6s3.6-3,6.3-3
			c2.7,0,4.8,1.1,6.2,3.2c1.4,2.2,2.1,4.6,2.1,7.4c0,3-0.7,5.5-2.2,7.6C-319.3,513.2-321.4,514.2-324.2,514.2z M-324,496.9
			c-2.4,0-3.6,2.2-3.6,6.7c0,4.5,1.2,6.7,3.6,6.7c2.3,0,3.5-2.2,3.5-6.7C-320.5,499.1-321.7,496.9-324,496.9z"/>
		<path class="st1" d="M-297.6,493.2v20.7h-3.9l-7.7-14c0,0.4,0,0.6,0,0.7c0,0.4,0.1,0.7,0.1,0.9v12.4h-3.6v-20.7h5l6.7,12.2
			c-0.1-0.6-0.1-1.1-0.1-1.4v-10.8H-297.6z"/>
		<path class="st1" d="M-280,497.8l-3.9,1.4c-0.5-1.6-1.6-2.5-3.3-2.5c-1.8,0-2.7,0.6-2.7,1.9c0,0.5,0.2,0.9,0.5,1.3
			c0.3,0.3,1.1,0.6,2.3,0.9c2,0.4,3.5,0.9,4.4,1.3c0.9,0.4,1.7,1.1,2.4,2.1c0.6,1,1,2,1,3.2c0,1.9-0.7,3.5-2.1,4.8
			c-1.4,1.4-3.4,2-6.1,2c-2,0-3.7-0.5-5.1-1.4c-1.4-1-2.3-2.4-2.8-4.3l4.3-1c0.5,1.9,1.8,2.9,4,2.9c1.1,0,1.8-0.2,2.4-0.6
			s0.8-0.9,0.8-1.5c0-0.6-0.2-1.1-0.7-1.4c-0.5-0.3-1.4-0.6-2.7-0.9c-2.5-0.5-4.3-1.3-5.4-2.2c-1.1-0.9-1.6-2.3-1.6-4.1
			c0-1.8,0.6-3.4,1.9-4.7s3-1.9,5.2-1.9C-283.6,492.9-281.1,494.5-280,497.8z"/>
		<path class="st1" d="M-263.9,493.2v4.1h-4.9v16.6h-4.7v-16.6h-4.9v-4.1H-263.9z"/>
		<path class="st1" d="M-257.3,505.7v8.2h-4.6v-20.7h8.6c1.6,0,2.9,0.2,3.8,0.6c1,0.4,1.8,1.1,2.4,2.1c0.6,1,1,2.2,1,3.5
			c0,2.5-1.1,4.3-3.4,5.3l3.6,9.1h-5.1l-3-8.2H-257.3z M-257.3,496.9v5.3h2.8c0.9,0,1.6-0.1,2-0.2c0.4-0.1,0.8-0.4,1.1-0.9
			c0.3-0.5,0.5-1,0.5-1.6c0-0.6-0.2-1.1-0.5-1.5c-0.3-0.5-0.7-0.7-1.1-0.8c-0.4-0.1-1.1-0.2-2.2-0.2H-257.3z"/>
		<path class="st1" d="M-227.3,493.2v12.9c0,2.1-0.2,3.6-0.7,4.6c-0.5,1-1.3,1.8-2.5,2.5s-2.8,1-4.7,1c-1.9,0-3.4-0.3-4.5-0.9
			c-1.1-0.6-2-1.4-2.5-2.5s-0.8-2.7-0.8-4.7v-12.9h5v12.9c0,1.1,0.1,1.9,0.3,2.5s0.5,0.9,1.1,1.2s1.2,0.5,2,0.5
			c0.9,0,1.6-0.2,2.1-0.5c0.5-0.3,0.9-0.7,1.1-1.2s0.3-1.3,0.3-2.5v-12.9H-227.3z"/>
		<path class="st1" d="M-207.8,500.9l-4.8,0.3c-0.1-2.9-1.2-4.4-3.2-4.4c-2.4,0-3.6,2.2-3.6,6.7c0,2.6,0.3,4.4,1,5.3
			c0.7,0.9,1.6,1.4,2.7,1.4c1.9,0,3.1-1.3,3.5-3.9l4.5,0.3c-0.3,2.5-1.2,4.4-2.6,5.6c-1.5,1.3-3.3,1.9-5.4,1.9
			c-2.6,0-4.7-0.9-6.3-2.8c-1.6-1.9-2.4-4.5-2.4-7.8c0-3.1,0.8-5.7,2.4-7.7c1.6-2,3.7-3,6.5-3C-211.1,492.9-208.4,495.6-207.8,500.9
			z"/>
		<path class="st1" d="M-189.3,500.9l-4.8,0.3c-0.1-2.9-1.2-4.4-3.2-4.4c-2.4,0-3.6,2.2-3.6,6.7c0,2.6,0.3,4.4,1,5.3
			c0.7,0.9,1.6,1.4,2.7,1.4c1.9,0,3.1-1.3,3.5-3.9l4.5,0.3c-0.3,2.5-1.2,4.4-2.6,5.6c-1.5,1.3-3.3,1.9-5.4,1.9
			c-2.6,0-4.7-0.9-6.3-2.8c-1.6-1.9-2.4-4.5-2.4-7.8c0-3.1,0.8-5.7,2.4-7.7c1.6-2,3.7-3,6.5-3C-192.5,492.9-189.9,495.6-189.3,500.9
			z"/>
		<path class="st1" d="M-182,493.2v20.7h-4.6v-20.7H-182z"/>
		<path class="st1" d="M-170.7,514.2c-2.6,0-4.7-1-6.1-3.1c-1.4-2.1-2.2-4.6-2.2-7.6c0-3,0.7-5.5,2.2-7.6s3.6-3,6.3-3
			c2.7,0,4.8,1.1,6.2,3.2c1.4,2.2,2.1,4.6,2.1,7.4c0,3-0.7,5.5-2.2,7.6C-165.8,513.2-167.9,514.2-170.7,514.2z M-170.6,496.9
			c-2.4,0-3.6,2.2-3.6,6.7c0,4.5,1.2,6.7,3.6,6.7c2.3,0,3.5-2.2,3.5-6.7C-167.1,499.1-168.2,496.9-170.6,496.9z M-167,486.1l1.1,2.5
			l-6.3,2.8l-0.7-1.7L-167,486.1z"/>
		<path class="st1" d="M-144.1,493.2v20.7h-3.9l-7.7-14c0,0.4,0,0.6,0,0.7c0,0.4,0.1,0.7,0.1,0.9v12.4h-3.6v-20.7h5l6.7,12.2
			c-0.1-0.6-0.1-1.1-0.1-1.4v-10.8H-144.1z"/>
		<path class="st1" d="M-387.5,534.4h-9.4v4.2h7.4v3.9h-7.4v4.5h9.4v4.1h-14v-20.7h14V534.4z"/>
		<path class="st1" d="M-369.6,530.5v20.7h-3.9l-7.7-14c0,0.4,0,0.6,0,0.7c0,0.4,0.1,0.7,0.1,0.9v12.4h-3.6v-20.7h5l6.7,12.2
			c-0.1-0.6-0.1-1.1-0.1-1.4v-10.8H-369.6z"/>
		<path class="st1" d="M-343,540.1v11.1h-2.1c-0.2-0.8-0.4-1.6-0.7-2.4c-1.4,1.8-3.2,2.7-5.4,2.7c-2.6,0-4.6-1-6-2.9
			c-1.4-1.9-2.1-4.4-2.1-7.5c0-3.3,0.8-5.9,2.3-7.9s3.6-3,6.2-3c2.2,0,4,0.6,5.3,1.9c1.3,1.3,2.2,3,2.5,5.2l-4.4,0.6
			c-0.4-2.5-1.5-3.8-3.4-3.8c-1.2,0-2.2,0.6-2.8,1.8c-0.6,1.2-1,2.9-1,5.1c0,2.1,0.3,3.7,1,4.9s1.7,1.7,3,1.7c0.8,0,1.6-0.3,2.2-0.8
			c0.6-0.6,1-1.5,1-2.7h-3.7v-3.9H-343z"/>
		<path class="st1" d="M-325.3,534.4h-9.4v4.2h7.4v3.9h-7.4v4.5h9.4v4.1h-14v-20.7h14V534.4z"/>
		<path class="st1" d="M-307.4,530.5v20.7h-3.9l-7.7-14c0,0.4,0,0.6,0,0.7c0,0.4,0.1,0.7,0.1,0.9v12.4h-3.6v-20.7h5l6.7,12.2
			c-0.1-0.6-0.1-1.1-0.1-1.4v-10.8H-307.4z"/>
		<path class="st1" d="M-289.4,534.4h-9.4v4.2h7.4v3.9h-7.4v4.5h9.4v4.1h-14v-20.7h14V534.4z"/>
		<path class="st1" d="M-282,543v8.2h-4.6v-20.7h8.6c1.6,0,2.9,0.2,3.8,0.6c1,0.4,1.8,1.1,2.4,2.1c0.6,1,1,2.2,1,3.5
			c0,2.5-1.1,4.3-3.4,5.3l3.6,9.1h-5.1l-3-8.2H-282z M-282,534.2v5.3h2.8c0.9,0,1.6-0.1,2-0.2c0.4-0.1,0.8-0.4,1.1-0.9
			c0.3-0.5,0.5-1,0.5-1.6c0-0.6-0.2-1.1-0.5-1.5c-0.3-0.5-0.7-0.7-1.1-0.8c-0.4-0.1-1.1-0.2-2.2-0.2H-282z"/>
		<path class="st1" d="M-257.6,530.5l6.2,20.7h-5l-1.2-4.3h-6.4l-1.2,4.3h-4l6.3-20.7H-257.6z M-262.9,543.1h4.2l-2.1-7.3
			L-262.9,543.1z"/>
		<path class="st1" d="M-244.7,547.1h7.8v4.1h-12.5v-20.7h4.7V547.1z"/>
	</g>
</g>
<g>
	<g>
		<path class="st0" d="M-417,414.6l-17,32.8v23.9h-12.6v-23.9l-17-32.8h14.7l10.3,21.5l10.2-21.5H-417z"/>
		<path class="st0" d="M-390.9,414.6l16.9,56.8h-13.6l-3.3-11.7h-17.4l-3.4,11.7h-11.1l17.3-56.8H-390.9z M-405.3,449.2h11.4
			l-5.7-19.9L-405.3,449.2z"/>
		<path class="st0" d="M-355.4,448.9v22.5h-12.7v-56.8h23.7c4.4,0,7.9,0.5,10.5,1.6s4.8,3,6.6,5.9c1.7,2.9,2.6,6,2.6,9.5
			c0,6.8-3.1,11.7-9.4,14.7l10,25.1h-14l-8.3-22.5H-355.4z M-355.4,424.7v14.5h7.7c2.5,0,4.4-0.2,5.5-0.6c1.1-0.4,2.2-1.2,3.1-2.5
			c0.9-1.3,1.3-2.8,1.3-4.4c0-1.6-0.4-3-1.3-4.2c-0.9-1.2-1.9-2-2.9-2.3c-1.1-0.3-3-0.4-5.9-0.4H-355.4z"/>
		<path class="st0" d="M-276.4,425.4h-25.7v11.6h20.2v10.7h-20.2v12.4h25.7v11.2H-315v-56.8h38.5V425.4z"/>
		<path class="st0" d="M-225.3,435.7l-13.2,0.9c-0.2-8-3.2-12-8.9-12c-6.6,0-9.9,6.2-9.9,18.5c0,7.1,0.9,12,2.7,14.5
			s4.3,3.8,7.5,3.8c5.2,0,8.4-3.6,9.6-10.7l12.3,0.8c-0.8,6.8-3.2,12-7.2,15.5s-8.9,5.3-14.8,5.3c-7.1,0-12.9-2.6-17.4-7.8
			s-6.7-12.3-6.7-21.5c0-8.6,2.2-15.6,6.5-21c4.3-5.5,10.2-8.2,17.7-8.2C-234.3,413.8-227,421.1-225.3,435.7z"/>
		<path class="st0" d="M-176.4,414.6v56.8h-12.4V448h-16.8v23.4H-218v-56.8h12.4v22.1h16.8v-22.1H-176.4z"/>
	</g>
</g>
<path class="st0" d="M233.6,187.5l-3.2,26.1c-29.7,17-38.1,45.7-43.4,72.7c-31.5,1.4-52.7,28.2-52.7,28.2h321.4
	C455.8,231.8,378.1,143.8,233.6,187.5z M242.3,192.6c59.4-18,105.6-10.1,137.7,10.9c-13-2.6-33.5-4.2-68.7-5.2
	c-30.8-0.9-53.7,3.1-70.8,10.3C240.7,204.3,241.3,197.6,242.3,192.6z"/>
<g>
	<path class="st2" d="M458.1,239.8c-61.3-85.2-173-93-232.5-82.6c0,0-29.7,15.2-23.7,34.3c2,2.2,2.8,5.4,1.7,8.4l-5.4,15.6
		c-1.5,4.4-6.3,6.8-10.8,5.2l-30.9-10.6c-4.4-1.5-6.8-6.4-5.2-10.8l5.4-15.6c1.4-4.1,5.6-6.4,9.6-5.5c17-9.8,5.8-41.3,5.8-41.3
		c-1.3-26.1,9.5-55.7,71.8-65.6c-18.4,17.9-12,49,1.7,49.8l0,0C300.3,122.8,401.6,147.9,458.1,239.8z"/>
	<path class="st2" d="M465.6,210.6c-43.1-53-81.9-88-135.3-108.7c-6.9,5.6-15.8,9-25.4,9c-22.2,0-40.2-17.8-40.6-39.9l33.6,16.4
		c3.9,1.9,8.7,0.3,10.6-3.7l9.3-19c1.9-3.9,0.3-8.7-3.7-10.6l-33.5-16.3c6.8-5,15.1-8,24.2-8c22.4,0,40.6,18.2,40.6,40.6
		c0,0.8,0,1.6-0.1,2.4C403,103,444.9,157.6,465.6,210.6z"/>
	<g>
		<path class="st2" d="M113.7,352.4H88.5v12.7h20v10.6h-20V398H75.3v-56.8h38.4V352.4z"/>
		<path class="st2" d="M158.7,352H133v11.6h20.2v10.7H133v12.4h25.7V398h-38.5v-56.8h38.5V352z"/>
		<path class="st2" d="M179.1,375.5V398h-12.7v-56.8H190c4.4,0,7.9,0.5,10.5,1.6s4.8,3,6.6,5.9c1.7,2.9,2.6,6,2.6,9.5
			c0,6.8-3.1,11.7-9.4,14.7l10,25.1h-14l-8.3-22.5H179.1z M179.1,351.3v14.5h7.7c2.5,0,4.4-0.2,5.5-0.6s2.2-1.2,3.1-2.5
			c0.9-1.3,1.3-2.8,1.3-4.4c0-1.6-0.4-3-1.3-4.2c-0.9-1.2-1.9-2-2.9-2.3c-1.1-0.3-3-0.4-5.9-0.4H179.1z"/>
		<path class="st2" d="M232.3,375.5V398h-12.7v-56.8h23.7c4.4,0,7.9,0.5,10.5,1.6s4.8,3,6.6,5.9c1.7,2.9,2.6,6,2.6,9.5
			c0,6.8-3.1,11.7-9.4,14.7l10,25.1h-14l-8.3-22.5H232.3z M232.3,351.3v14.5h7.7c2.5,0,4.4-0.2,5.5-0.6c1.1-0.4,2.2-1.2,3.1-2.5
			c0.9-1.3,1.3-2.8,1.3-4.4c0-1.6-0.4-3-1.3-4.2c-0.9-1.2-1.9-2-2.9-2.3s-3-0.4-5.9-0.4H232.3z"/>
		<path class="st2" d="M311.3,352h-25.7v11.6h20.2v10.7h-20.2v12.4h25.7V398h-38.5v-56.8h38.5V352z"/>
		<path class="st2" d="M353.1,341.2v11.2h-13.4V398h-12.8v-45.5h-13.4v-11.2H353.1z"/>
		<path class="st2" d="M397,352h-25.7v11.6h20.2v10.7h-20.2v12.4H397V398h-38.5v-56.8H397V352z"/>
		<path class="st2" d="M417.3,375.5V398h-12.7v-56.8h23.7c4.4,0,7.9,0.5,10.5,1.6s4.8,3,6.6,5.9c1.7,2.9,2.6,6,2.6,9.5
			c0,6.8-3.1,11.7-9.4,14.7l10,25.1h-14l-8.3-22.5H417.3z M417.3,351.3v14.5h7.7c2.5,0,4.4-0.2,5.5-0.6s2.2-1.2,3.1-2.5
			c0.9-1.3,1.3-2.8,1.3-4.4c0-1.6-0.4-3-1.3-4.2s-1.9-2-2.9-2.3c-1.1-0.3-3-0.4-5.9-0.4H417.3z"/>
		<path class="st2" d="M470.4,341.2V398h-12.6v-56.8H470.4z"/>
		<path class="st2" d="M507.8,341.2l16.9,56.8h-13.6l-3.3-11.7h-17.4l-3.4,11.7h-11.1l17.3-56.8H507.8z M493.3,375.8h11.4l-5.7-19.9
			L493.3,375.8z"/>
	</g>
	<g>
		<path class="st2" d="M132.8,513.9l-4.9-16.9v16.9h-3.9v-20.7h7.2l3.5,12.4l3.6-12.4h7.2v20.7h-4.6v-16.9l-4.9,16.9H132.8z"/>
		<path class="st2" d="M154.1,493.2v20.7h-4.6v-20.7H154.1z"/>
		<path class="st2" d="M173.2,493.2v20.7h-3.9l-7.7-14c0,0.4,0,0.6,0,0.7c0,0.4,0.1,0.7,0.1,0.9v12.4H158v-20.7h5l6.7,12.2
			c-0.1-0.6-0.1-1.1-0.1-1.4v-10.8H173.2z"/>
		<path class="st2" d="M191.2,497.2h-9.4v4.2h7.4v3.9h-7.4v4.5h9.4v4.1h-14v-20.7h14V497.2z"/>
		<path class="st2" d="M198.6,505.7v8.2h-4.6v-20.7h8.6c1.6,0,2.9,0.2,3.8,0.6c1,0.4,1.8,1.1,2.4,2.1c0.6,1,1,2.2,1,3.5
			c0,2.5-1.1,4.3-3.4,5.3l3.6,9.1h-5.1l-3-8.2H198.6z M198.6,496.9v5.3h2.8c0.9,0,1.6-0.1,2-0.2s0.8-0.4,1.1-0.9s0.5-1,0.5-1.6
			c0-0.6-0.2-1.1-0.5-1.5c-0.3-0.5-0.7-0.7-1.1-0.8c-0.4-0.1-1.1-0.2-2.2-0.2H198.6z"/>
		<path class="st2" d="M219.1,486.1l1.1,2.5l-6.3,2.8l-0.7-1.7L219.1,486.1z M217.9,493.2v20.7h-4.6v-20.7H217.9z"/>
		<path class="st2" d="M231.5,493.2l6.2,20.7h-5l-1.2-4.3h-6.4l-1.2,4.3h-4l6.3-20.7H231.5z M226.3,505.8h4.2l-2.1-7.3L226.3,505.8z
			"/>
		<path class="st2" d="M261.4,493.2l-6.2,12v8.7h-4.6v-8.7l-6.2-12h5.3l3.7,7.8l3.7-7.8H261.4z"/>
		<path class="st2" d="M285.8,500.9l-4.8,0.3c-0.1-2.9-1.1-4.4-3.2-4.4c-2.4,0-3.6,2.2-3.6,6.7c0,2.6,0.3,4.4,1,5.3
			c0.7,0.9,1.6,1.4,2.7,1.4c1.9,0,3.1-1.3,3.5-3.9l4.5,0.3c-0.3,2.5-1.2,4.4-2.6,5.6c-1.5,1.3-3.3,1.9-5.4,1.9
			c-2.6,0-4.7-0.9-6.3-2.8c-1.6-1.9-2.4-4.5-2.4-7.8c0-3.1,0.8-5.7,2.4-7.7c1.6-2,3.7-3,6.5-3C282.5,492.9,285.2,495.6,285.8,500.9z
			"/>
		<path class="st2" d="M295.8,514.2c-2.6,0-4.7-1-6.1-3.1c-1.4-2.1-2.2-4.6-2.2-7.6c0-3,0.7-5.5,2.2-7.6s3.6-3,6.3-3
			c2.7,0,4.8,1.1,6.2,3.2c1.4,2.2,2.1,4.6,2.1,7.4c0,3-0.7,5.5-2.2,7.6C300.7,513.2,298.6,514.2,295.8,514.2z M296,496.9
			c-2.4,0-3.6,2.2-3.6,6.7c0,4.5,1.2,6.7,3.6,6.7c2.3,0,3.5-2.2,3.5-6.7C299.5,499.1,298.3,496.9,296,496.9z"/>
		<path class="st2" d="M322.4,493.2v20.7h-3.9l-7.7-14c0,0.4,0,0.6,0,0.7c0,0.4,0.1,0.7,0.1,0.9v12.4h-3.6v-20.7h5l6.7,12.2
			c-0.1-0.6-0.1-1.1-0.1-1.4v-10.8H322.4z"/>
		<path class="st2" d="M340,497.8l-3.9,1.4c-0.5-1.6-1.6-2.5-3.3-2.5c-1.8,0-2.7,0.6-2.7,1.9c0,0.5,0.2,0.9,0.5,1.3
			c0.3,0.3,1.1,0.6,2.3,0.9c2,0.4,3.5,0.9,4.4,1.3c0.9,0.4,1.7,1.1,2.4,2.1c0.6,1,1,2,1,3.2c0,1.9-0.7,3.5-2.1,4.8
			c-1.4,1.4-3.4,2-6.1,2c-2,0-3.7-0.5-5.1-1.4c-1.4-1-2.3-2.4-2.8-4.3l4.3-1c0.5,1.9,1.8,2.9,4,2.9c1.1,0,1.8-0.2,2.4-0.6
			s0.8-0.9,0.8-1.5c0-0.6-0.2-1.1-0.7-1.4c-0.5-0.3-1.4-0.6-2.7-0.9c-2.5-0.5-4.3-1.3-5.4-2.2c-1.1-0.9-1.6-2.3-1.6-4.1
			c0-1.8,0.6-3.4,1.9-4.7s3-1.9,5.2-1.9C336.4,492.9,338.9,494.5,340,497.8z"/>
		<path class="st2" d="M356.1,493.2v4.1h-4.9v16.6h-4.7v-16.6h-4.9v-4.1H356.1z"/>
		<path class="st2" d="M362.7,505.7v8.2h-4.6v-20.7h8.6c1.6,0,2.9,0.2,3.8,0.6c1,0.4,1.8,1.1,2.4,2.1c0.6,1,1,2.2,1,3.5
			c0,2.5-1.1,4.3-3.4,5.3l3.6,9.1H369l-3-8.2H362.7z M362.7,496.9v5.3h2.8c0.9,0,1.6-0.1,2-0.2c0.4-0.1,0.8-0.4,1.1-0.9
			c0.3-0.5,0.5-1,0.5-1.6c0-0.6-0.2-1.1-0.5-1.5c-0.3-0.5-0.7-0.7-1.1-0.8c-0.4-0.1-1.1-0.2-2.2-0.2H362.7z"/>
		<path class="st2" d="M392.7,493.2v12.9c0,2.1-0.2,3.6-0.7,4.6c-0.5,1-1.3,1.8-2.5,2.5s-2.8,1-4.7,1c-1.9,0-3.4-0.3-4.5-0.9
			c-1.1-0.6-2-1.4-2.5-2.5s-0.8-2.7-0.8-4.7v-12.9h5v12.9c0,1.1,0.1,1.9,0.3,2.5s0.5,0.9,1.1,1.2s1.2,0.5,2,0.5
			c0.9,0,1.6-0.2,2.1-0.5c0.5-0.3,0.9-0.7,1.1-1.2s0.3-1.3,0.3-2.5v-12.9H392.7z"/>
		<path class="st2" d="M412.2,500.9l-4.8,0.3c-0.1-2.9-1.2-4.4-3.2-4.4c-2.4,0-3.6,2.2-3.6,6.7c0,2.6,0.3,4.4,1,5.3
			c0.7,0.9,1.6,1.4,2.7,1.4c1.9,0,3.1-1.3,3.5-3.9l4.5,0.3c-0.3,2.5-1.2,4.4-2.6,5.6c-1.5,1.3-3.3,1.9-5.4,1.9
			c-2.6,0-4.7-0.9-6.3-2.8c-1.6-1.9-2.4-4.5-2.4-7.8c0-3.1,0.8-5.7,2.4-7.7c1.6-2,3.7-3,6.5-3C408.9,492.9,411.6,495.6,412.2,500.9z
			"/>
		<path class="st2" d="M430.7,500.9l-4.8,0.3c-0.1-2.9-1.2-4.4-3.2-4.4c-2.4,0-3.6,2.2-3.6,6.7c0,2.6,0.3,4.4,1,5.3
			c0.7,0.9,1.6,1.4,2.7,1.4c1.9,0,3.1-1.3,3.5-3.9l4.5,0.3c-0.3,2.5-1.2,4.4-2.6,5.6c-1.5,1.3-3.3,1.9-5.4,1.9
			c-2.6,0-4.7-0.9-6.3-2.8c-1.6-1.9-2.4-4.5-2.4-7.8c0-3.1,0.8-5.7,2.4-7.7c1.6-2,3.7-3,6.5-3C427.5,492.9,430.1,495.6,430.7,500.9z
			"/>
		<path class="st2" d="M438,493.2v20.7h-4.6v-20.7H438z"/>
		<path class="st2" d="M449.3,514.2c-2.6,0-4.7-1-6.1-3.1c-1.4-2.1-2.2-4.6-2.2-7.6c0-3,0.7-5.5,2.2-7.6s3.6-3,6.3-3
			c2.7,0,4.8,1.1,6.2,3.2c1.4,2.2,2.1,4.6,2.1,7.4c0,3-0.7,5.5-2.2,7.6C454.2,513.2,452.1,514.2,449.3,514.2z M449.4,496.9
			c-2.4,0-3.6,2.2-3.6,6.7c0,4.5,1.2,6.7,3.6,6.7c2.3,0,3.5-2.2,3.5-6.7C452.9,499.1,451.8,496.9,449.4,496.9z M453,486.1l1.1,2.5
			l-6.3,2.8l-0.7-1.7L453,486.1z"/>
		<path class="st2" d="M475.9,493.2v20.7H472l-7.7-14c0,0.4,0,0.6,0,0.7c0,0.4,0.1,0.7,0.1,0.9v12.4h-3.6v-20.7h5l6.7,12.2
			c-0.1-0.6-0.1-1.1-0.1-1.4v-10.8H475.9z"/>
		<path class="st2" d="M232.5,534.4h-9.4v4.2h7.4v3.9h-7.4v4.5h9.4v4.1h-14v-20.7h14V534.4z"/>
		<path class="st2" d="M250.4,530.5v20.7h-3.9l-7.7-14c0,0.4,0,0.6,0,0.7c0,0.4,0.1,0.7,0.1,0.9v12.4h-3.6v-20.7h5l6.7,12.2
			c-0.1-0.6-0.1-1.1-0.1-1.4v-10.8H250.4z"/>
		<path class="st2" d="M277,540.1v11.1h-2.1c-0.2-0.8-0.4-1.6-0.7-2.4c-1.4,1.8-3.2,2.7-5.4,2.7c-2.6,0-4.6-1-6-2.9
			c-1.4-1.9-2.1-4.4-2.1-7.5c0-3.3,0.8-5.9,2.3-7.9s3.6-3,6.2-3c2.2,0,4,0.6,5.3,1.9c1.3,1.3,2.2,3,2.5,5.2l-4.4,0.6
			c-0.4-2.5-1.5-3.8-3.4-3.8c-1.2,0-2.2,0.6-2.8,1.8c-0.6,1.2-1,2.9-1,5.1c0,2.1,0.3,3.7,1,4.9s1.7,1.7,3,1.7c0.8,0,1.6-0.3,2.2-0.8
			c0.6-0.6,1-1.5,1-2.7h-3.7v-3.9H277z"/>
		<path class="st2" d="M294.7,534.4h-9.4v4.2h7.4v3.9h-7.4v4.5h9.4v4.1h-14v-20.7h14V534.4z"/>
		<path class="st2" d="M312.6,530.5v20.7h-3.9l-7.7-14c0,0.4,0,0.6,0,0.7c0,0.4,0.1,0.7,0.1,0.9v12.4h-3.6v-20.7h5l6.7,12.2
			c-0.1-0.6-0.1-1.1-0.1-1.4v-10.8H312.6z"/>
		<path class="st2" d="M330.6,534.4h-9.4v4.2h7.4v3.9h-7.4v4.5h9.4v4.1h-14v-20.7h14V534.4z"/>
		<path class="st2" d="M338,543v8.2h-4.6v-20.7h8.6c1.6,0,2.9,0.2,3.8,0.6c1,0.4,1.8,1.1,2.4,2.1c0.6,1,1,2.2,1,3.5
			c0,2.5-1.1,4.3-3.4,5.3l3.6,9.1h-5.1l-3-8.2H338z M338,534.2v5.3h2.8c0.9,0,1.6-0.1,2-0.2c0.4-0.1,0.8-0.4,1.1-0.9
			c0.3-0.5,0.5-1,0.5-1.6c0-0.6-0.2-1.1-0.5-1.5c-0.3-0.5-0.7-0.7-1.1-0.8c-0.4-0.1-1.1-0.2-2.2-0.2H338z"/>
		<path class="st2" d="M362.4,530.5l6.2,20.7h-5l-1.2-4.3H356l-1.2,4.3h-4l6.3-20.7H362.4z M357.1,543.1h4.2l-2.1-7.3L357.1,543.1z"
			/>
		<path class="st2" d="M375.3,547.1h7.8v4.1h-12.5v-20.7h4.7V547.1z"/>
	</g>
</g>
<g>
	<g>
		<path class="st0" d="M203,414.6l-17,32.8v23.9h-12.6v-23.9l-17-32.8h14.7l10.3,21.5l10.2-21.5H203z"/>
		<path class="st0" d="M229.1,414.6l16.9,56.8h-13.6l-3.3-11.7h-17.4l-3.4,11.7h-11.1l17.3-56.8H229.1z M214.7,449.2h11.4l-5.7-19.9
			L214.7,449.2z"/>
		<path class="st0" d="M264.6,448.9v22.5h-12.7v-56.8h23.7c4.4,0,7.9,0.5,10.5,1.6s4.8,3,6.6,5.9c1.7,2.9,2.6,6,2.6,9.5
			c0,6.8-3.1,11.7-9.4,14.7l10,25.1h-14l-8.3-22.5H264.6z M264.6,424.7v14.5h7.7c2.5,0,4.4-0.2,5.5-0.6s2.2-1.2,3.1-2.5
			c0.9-1.3,1.3-2.8,1.3-4.4c0-1.6-0.4-3-1.3-4.2c-0.9-1.2-1.9-2-2.9-2.3c-1.1-0.3-3-0.4-5.9-0.4H264.6z"/>
		<path class="st0" d="M343.6,425.4h-25.7v11.6h20.2v10.7h-20.2v12.4h25.7v11.2H305v-56.8h38.5V425.4z"/>
		<path class="st0" d="M394.7,435.7l-13.2,0.9c-0.2-8-3.2-12-8.9-12c-6.6,0-9.9,6.2-9.9,18.5c0,7.1,0.9,12,2.7,14.5s4.3,3.8,7.5,3.8
			c5.2,0,8.4-3.6,9.6-10.7l12.3,0.8c-0.8,6.8-3.2,12-7.2,15.5s-8.9,5.3-14.8,5.3c-7.1,0-12.9-2.6-17.4-7.8s-6.7-12.3-6.7-21.5
			c0-8.6,2.2-15.6,6.5-21c4.3-5.5,10.2-8.2,17.7-8.2C385.7,413.8,393,421.1,394.7,435.7z"/>
		<path class="st0" d="M443.6,414.6v56.8h-12.4V448h-16.8v23.4H402v-56.8h12.4v22.1h16.8v-22.1H443.6z"/>
	</g>
</g>
</svg>
