<?xml version="1.0" encoding="utf-8"?>
<!-- Generator: Adobe Illustrator 26.3.0, SVG Export Plug-In . SVG Version: 6.00 Build 0)  -->
<svg version="1.1" id="Capa_1" xmlns="http://www.w3.org/2000/svg" xmlns:xlink="http://www.w3.org/1999/xlink" x="0px" y="0px"
	 viewBox="0 0 500 500" style="enable-background:new 0 0 500 500;" xml:space="preserve">
<style type="text/css">
	.st0{fill:#EBEBEB;}
	.st1{fill:#E0E0E0;}
	.st2{fill:#F5F5F5;}
	.st3{fill:#F0F0F0;}
	.st4{fill:#E6E6E6;}
	.st5{fill:#FFFFFF;}
	.st6{display:none;}
	.st7{display:inline;}
	.st8{fill:#407BFF;}
	.st9{opacity:0.9;fill:#FFFFFF;enable-background:new    ;}
	.st10{fill:#F5922A;}
	.st11{opacity:0.6;fill:#FFFFFF;enable-background:new    ;}
	.st12{opacity:0.8;fill:#FFFFFF;enable-background:new    ;}
	.st13{fill:#263238;}
	.st14{opacity:0.2;enable-background:new    ;}
	.st15{opacity:0.3;fill:#263238;enable-background:new    ;}
	.st16{opacity:0.7;fill:#FFFFFF;enable-background:new    ;}
	.st17{opacity:0.3;fill:#F5922A;enable-background:new    ;}
	.st18{fill:#FF8B7B;}
	.st19{fill:#FF5652;}
</style>
<g id="Background_Complete">
	<g>
		<rect y="382.4" class="st0" width="500" height="0.2"/>
		<rect x="435" y="398.5" class="st0" width="14.9" height="0.2"/>
		<rect x="322.5" y="401.2" class="st0" width="8.7" height="0.2"/>
		<rect x="396.6" y="389.2" class="st0" width="34.2" height="0.2"/>
		<rect x="66.4" y="394.4" class="st0" width="43.2" height="0.2"/>
		<rect x="118.5" y="394.4" class="st0" width="15.6" height="0.2"/>
		<rect x="161.1" y="391" class="st0" width="93.7" height="0.2"/>
		<path class="st0" d="M237,337.8H43.9c-3.1,0-5.7-2.6-5.7-5.7V60.7c0-3.1,2.6-5.7,5.7-5.7H237c3.1,0,5.7,2.6,5.7,5.7v271.4
			C242.7,335.2,240.2,337.8,237,337.8z M43.9,55.2c-3,0-5.5,2.4-5.5,5.5v271.4c0,3,2.4,5.5,5.5,5.5H237c3,0,5.5-2.4,5.5-5.5V60.7
			c0-3-2.4-5.5-5.5-5.5H43.9z"/>
		<path class="st0" d="M453.3,337.8H260.2c-3.1,0-5.7-2.6-5.7-5.7V60.7c0-3.1,2.6-5.7,5.7-5.7h193.1c3.1,0,5.7,2.6,5.7,5.7v271.4
			C459,335.2,456.5,337.8,453.3,337.8z M260.2,55.2c-3,0-5.5,2.4-5.5,5.5v271.4c0,3,2.4,5.5,5.5,5.5h193.1c3,0,5.5-2.4,5.5-5.5V60.7
			c0-3-2.4-5.5-5.5-5.5H260.2z"/>
	</g>
	<g>
		<rect x="74.6" y="116" class="st1" width="94.7" height="266.4"/>
		<rect x="169.3" y="116" class="st2" width="251" height="266.4"/>
		<rect x="64.6" y="149.3" class="st0" width="114.7" height="6.7"/>
		<rect x="179.3" y="149.3" class="st1" width="251" height="6.7"/>
		<rect x="64.6" y="189.3" class="st0" width="114.7" height="6.7"/>
		<rect x="179.3" y="189.3" class="st1" width="251" height="6.7"/>
		<rect x="64.6" y="229.3" class="st0" width="114.7" height="6.7"/>
		<rect x="179.3" y="229.3" class="st1" width="251" height="6.7"/>
		<rect x="64.6" y="269.3" class="st0" width="114.7" height="6.7"/>
		<rect x="179.3" y="269.3" class="st1" width="251" height="6.7"/>
		<rect x="64.6" y="309.3" class="st0" width="114.7" height="6.7"/>
		<rect x="179.3" y="309.3" class="st1" width="251" height="6.7"/>
		<rect x="64.6" y="349.3" class="st0" width="114.7" height="6.7"/>
		<rect x="179.3" y="349.3" class="st1" width="251" height="6.7"/>
		<g>
			<rect x="101.1" y="35" class="st2" width="144" height="71"/>
			<rect x="167" y="106" class="st1" width="12.2" height="10"/>
			<rect x="101.1" y="98.3" class="st3" width="144" height="7.7"/>
			<rect x="101.1" y="35" class="st3" width="144" height="7.7"/>
		</g>
		<g>
			<rect x="304.7" y="64.6" class="st2" width="71.4" height="45.1"/>
			<rect x="336.6" y="109.7" class="st1" width="7.8" height="6.3"/>
			<rect x="304.7" y="104.8" class="st3" width="71.4" height="4.9"/>
			<rect x="304.7" y="64.6" class="st3" width="71.4" height="4.9"/>
		</g>
		<g>
			<rect x="356.6" y="124.1" class="st4" width="25.2" height="25.2"/>
			<rect x="381.9" y="124.1" class="st5" width="24.4" height="25.2"/>
			<rect x="326.6" y="124.1" class="st4" width="25.2" height="25.2"/>
			<rect x="351.9" y="124.1" class="st5" width="24.4" height="25.2"/>
			<rect x="296.6" y="124.1" class="st4" width="25.2" height="25.2"/>
			<rect x="321.9" y="124.1" class="st5" width="24.4" height="25.2"/>
			<rect x="266.6" y="124.1" class="st4" width="25.2" height="25.2"/>
			<rect x="291.9" y="124.1" class="st5" width="24.4" height="25.2"/>
		</g>
		<g>
			<rect x="92.5" y="162.7" class="st3" width="10.6" height="26.6"/>
			<rect x="82.3" y="162.8" class="st5" width="10.2" height="26.6"/>
			<rect x="105" y="162.7" class="st3" width="10.6" height="26.6"/>
			<rect x="94.9" y="162.8" class="st5" width="10.2" height="26.6"/>
			<rect x="117.7" y="162.7" class="st3" width="10.6" height="26.6"/>
			<rect x="107.4" y="162.8" class="st5" width="10.2" height="26.6"/>
			<rect x="130.2" y="162.7" class="st3" width="10.6" height="26.6"/>
			<rect x="120" y="162.8" class="st5" width="10.2" height="26.6"/>
		</g>
		<g>
			<rect x="101.2" y="291.5" class="st3" width="14.2" height="17.9"/>
			<rect x="87.4" y="291.4" class="st5" width="13.8" height="17.9"/>
			<rect x="118.1" y="291.5" class="st3" width="14.2" height="17.9"/>
			<rect x="104.3" y="291.4" class="st5" width="13.8" height="17.9"/>
			<rect x="135.1" y="291.5" class="st3" width="14.2" height="17.9"/>
			<rect x="121.2" y="291.4" class="st5" width="13.8" height="17.9"/>
			<rect x="152" y="291.5" class="st3" width="14.2" height="17.9"/>
			<rect x="138.2" y="291.4" class="st5" width="13.8" height="17.9"/>
		</g>
		<g>
			<rect x="372.6" y="204.1" class="st4" width="14" height="25.2"/>
			<rect x="386.6" y="204.1" class="st5" width="13.5" height="25.2"/>
			<rect x="356" y="204.1" class="st4" width="14" height="25.2"/>
			<rect x="370" y="204.1" class="st5" width="13.5" height="25.2"/>
			<rect x="339.3" y="204.1" class="st4" width="14" height="25.2"/>
			<rect x="353.4" y="204.1" class="st5" width="13.5" height="25.2"/>
			<rect x="322.7" y="204.1" class="st4" width="14" height="25.2"/>
			<rect x="336.8" y="204.1" class="st5" width="13.5" height="25.2"/>
		</g>
		<g>
			<rect x="286.3" y="204.1" class="st4" width="14" height="25.2"/>
			<rect x="300.4" y="204.1" class="st5" width="13.5" height="25.2"/>
			<rect x="269.7" y="204.1" class="st4" width="14" height="25.2"/>
			<rect x="283.7" y="204.1" class="st5" width="13.5" height="25.2"/>
			<rect x="253.1" y="204.1" class="st4" width="14" height="25.2"/>
			<rect x="267.1" y="204.1" class="st5" width="13.5" height="25.2"/>
			<rect x="236.5" y="204.1" class="st4" width="14" height="25.2"/>
			<rect x="250.4" y="204.1" class="st5" width="13.5" height="25.2"/>
		</g>
		<g>
			<rect x="329.7" y="291.4" class="st4" width="34.1" height="17.8"/>
			<rect x="363.7" y="291.5" class="st5" width="33" height="17.8"/>
			<rect x="289.2" y="291.4" class="st4" width="34.1" height="17.8"/>
			<rect x="323.2" y="291.5" class="st5" width="33" height="17.8"/>
			<rect x="248.7" y="291.4" class="st4" width="34.1" height="17.8"/>
			<rect x="282.7" y="291.5" class="st5" width="33" height="17.8"/>
			<rect x="208.1" y="291.4" class="st4" width="34.1" height="17.8"/>
			<rect x="242.3" y="291.5" class="st5" width="33" height="17.8"/>
		</g>
		<circle class="st4" cx="208.7" cy="178.1" r="11.2"/>
		<circle class="st4" cx="238.7" cy="178.1" r="11.2"/>
		<circle class="st4" cx="268.7" cy="178.1" r="11.2"/>
		<circle class="st4" cx="298.7" cy="178.1" r="11.2"/>
		<ellipse class="st4" cx="88.2" cy="261.9" rx="7.4" ry="7.4"/>
		<ellipse class="st4" cx="108" cy="261.9" rx="7.4" ry="7.4"/>
		<ellipse class="st4" cx="127.7" cy="262" rx="7.4" ry="7.4"/>
		<ellipse class="st4" cx="147.5" cy="261.9" rx="7.4" ry="7.4"/>
		<g>
			<ellipse class="st5" cx="332.9" cy="341.6" rx="7.7" ry="7.7"/>
			<ellipse class="st5" cx="353.4" cy="341.6" rx="7.7" ry="7.7"/>
			<ellipse class="st5" cx="374" cy="341.6" rx="7.7" ry="7.7"/>
			<ellipse class="st5" cx="394.5" cy="341.6" rx="7.7" ry="7.7"/>
			<ellipse class="st5" cx="343.5" cy="330.9" rx="7.7" ry="7.7"/>
			<ellipse class="st5" cx="364" cy="330.9" rx="7.7" ry="7.7"/>
			<ellipse class="st5" cx="384.6" cy="330.9" rx="7.7" ry="7.7"/>
		</g>
		<g>
			
				<ellipse transform="matrix(0.7071 -0.7071 0.7071 0.7071 -173.2879 264.8658)" class="st5" cx="233.1" cy="341.6" rx="7.7" ry="7.7"/>
			
				<ellipse transform="matrix(0.3827 -0.9239 0.9239 0.3827 -158.9874 445.2028)" class="st5" cx="253.7" cy="341.6" rx="7.7" ry="7.7"/>
			<ellipse class="st5" cx="274.2" cy="341.6" rx="7.7" ry="7.7"/>
			<ellipse class="st5" cx="294.7" cy="341.7" rx="7.7" ry="7.7"/>
			
				<ellipse transform="matrix(0.3827 -0.9239 0.9239 0.3827 -155.2226 429.4197)" class="st5" cx="243.7" cy="330.9" rx="7.7" ry="7.7"/>
			<ellipse class="st5" cx="264.2" cy="330.9" rx="7.7" ry="7.7"/>
			<ellipse class="st5" cx="284.8" cy="330.9" rx="7.7" ry="7.7"/>
		</g>
		<g>
			<polygon class="st1" points="377,249.2 382.6,269.3 353,269.3 			"/>
			<polygon class="st5" points="377,249.2 366.7,269.3 397.9,269.3 			"/>
		</g>
		<g>
			<polygon class="st1" points="330.1,249.2 335.8,269.3 306.2,269.3 			"/>
			<polygon class="st5" points="330.1,249.2 319.9,269.3 351.1,269.3 			"/>
		</g>
		<g>
			<polygon class="st1" points="283.3,249.2 289,269.3 259.4,269.3 			"/>
			<polygon class="st5" points="283.3,249.2 273,269.3 304.3,269.3 			"/>
		</g>
		<g>
			<polygon class="st2" points="90.7,209.8 87.5,229.3 104.1,229.3 			"/>
			<polygon class="st5" points="90.7,209.8 96.4,229.3 79,229.3 			"/>
		</g>
		<g>
			<polygon class="st2" points="116.8,209.8 113.7,229.3 130.2,229.3 			"/>
			<polygon class="st5" points="116.8,209.8 122.5,229.3 105.1,229.3 			"/>
		</g>
		<g>
			<polygon class="st2" points="142.9,209.8 139.8,229.3 156.3,229.3 			"/>
			<polygon class="st5" points="142.9,209.8 148.7,229.3 131.2,229.3 			"/>
		</g>
		<g>
			<polygon class="st1" points="236.5,249.2 242.2,269.3 212.6,269.3 			"/>
			<polygon class="st5" points="236.5,249.2 226.2,269.3 257.5,269.3 			"/>
		</g>
	</g>
</g>
<g id="Background_Simple" class="st6">
	<g class="st7">
		<path class="st8" d="M58.1,205.7c-21.6-79.5,127.1-116,206.1-104c99.9,15.2,155.6,69.9,152.8,153.8
			c-2.8,83.1-97.5,130.1-167.8,94.7c-34.6-17.5-59.7-48.9-94.2-67.1C114,261.4,71.7,255.4,58.1,205.7z"/>
		<path class="st9" d="M58.1,205.7c-21.6-79.5,127.1-116,206.1-104c99.9,15.2,155.6,69.9,152.8,153.8
			c-2.8,83.1-97.5,130.1-167.8,94.7c-34.6-17.5-59.7-48.9-94.2-67.1C114,261.4,71.7,255.4,58.1,205.7z"/>
	</g>
</g>
<g id="Shadow_1_">
	<ellipse id="_x3C_Path_x3E__106_" class="st2" cx="250" cy="416.2" rx="193.9" ry="11.3"/>
</g>
<g id="Cash_Register">
	<g>
		<path class="st10" d="M292,285.7h82.8c3.5,0,6.4,2.9,6.4,6.4l0,0c0,3.5-2.9,6.4-6.4,6.4H292V285.7z"/>
		<path class="st11" d="M292,285.7h82.8c3.5,0,6.4,2.9,6.4,6.4l0,0c0,3.5-2.9,6.4-6.4,6.4H292V285.7z"/>
		<g>
			<g>
				<ellipse class="st10" cx="366.7" cy="246" rx="9.6" ry="9.6"/>
				<ellipse class="st12" cx="366.7" cy="246" rx="9.6" ry="9.6"/>
			</g>
			<polygon class="st13" points="300.8,247.2 379.9,247.2 372.3,285.7 308.4,285.7 			"/>
			<g>
				<path class="st10" d="M298.6,243.6h83.5c0.8,0,1.4,0.8,1.1,1.5l-1,3.4c-0.1,0.5-0.6,0.9-1.1,0.9h-81.5c-0.5,0-1-0.3-1.1-0.9
					l-1-3.4C297.2,244.3,297.8,243.6,298.6,243.6z"/>
				<path class="st11" d="M298.6,243.6h83.5c0.8,0,1.4,0.8,1.1,1.5l-1,3.4c-0.1,0.5-0.6,0.9-1.1,0.9h-81.5c-0.5,0-1-0.3-1.1-0.9
					l-1-3.4C297.2,244.3,297.8,243.6,298.6,243.6z"/>
			</g>
			<g>
				<rect x="308.5" y="239" class="st10" width="38" height="4.6"/>
				<rect x="308.5" y="239" class="st14" width="38" height="4.6"/>
			</g>
			<path class="st10" d="M330.4,251.9c-0.2,0.6-0.7,0.9-1.3,0.8c-3-0.5-4.5-3.2-3.4-6.5l7.7-23.1c1.2-3.6,5.2-6.6,8.8-6.6h13.5
				c3.6,0,5.6,3,4.4,6.6l-6.8,20.5H351l6.8-20.5c0.8-2.4-0.5-4.3-2.9-4.3h-13.5c-2.4,0-5,1.9-5.8,4.3l-7.7,23.1
				c-0.6,2,0.1,3.6,1.7,4.1C330.2,250.6,330.6,251.2,330.4,251.9L330.4,251.9z"/>
		</g>
		<path class="st10" d="M308.8,240.6H180c-4.8,0-8.6,3.9-8.6,8.6v158.3c0,4.8,3.9,8.6,8.6,8.6h128.8c4.8,0,8.6-3.9,8.6-8.6V249.3
			C317.4,244.5,313.6,240.6,308.8,240.6z"/>
		<path class="st10" d="M206.9,306.2h-120c-3.5,0-6.4,2.9-6.4,6.4l0,0c0,3.5,2.9,6.4,6.4,6.4h120V306.2z"/>
		<polygon class="st15" points="206.9,322.5 171.5,338.5 171.5,319 206.9,319 		"/>
		<path class="st16" d="M206.9,306.2h-76.4c-3.5,0-6.4,2.9-6.4,6.4l0,0c0,3.5,2.9,6.4,6.4,6.4h76.4V306.2z"/>
		<path class="st16" d="M308.8,240.6h-88.9c-4.8,0-8.6,3.9-8.6,8.6v158.3c0,4.8,3.9,8.6,8.6,8.6h88.9c4.8,0,8.6-3.9,8.6-8.6V249.3
			C317.4,244.5,313.6,240.6,308.8,240.6z"/>
		<g>
			<rect x="127.9" y="319" class="st10" width="10.8" height="97.3"/>
			<rect x="127.9" y="319" class="st16" width="10.8" height="97.3"/>
		</g>
		<polygon class="st17" points="138.8,323.2 127.9,325.5 127.9,319 138.8,319 		"/>
		<path class="st17" d="M305,294.1h-81.4c-1.4,0-2.5-1.1-2.5-2.5v-27.8c0-1.4,1.1-2.5,2.5-2.5H305c1.4,0,2.5,1.1,2.5,2.5v27.8
			C307.5,293,306.4,294.1,305,294.1z"/>
		<g>
			<polygon class="st10" points="159.5,223.4 100.2,223.4 94.2,306.2 165.5,306.2 			"/>
			<polygon class="st15" points="108.1,223.4 100.2,223.4 94.2,306.2 110.1,306.2 			"/>
			<path class="st10" d="M133.4,233.5c-5.5,0-10.5-3.9-11.3-9.1c-0.4-2.6,0.2-5.1,1.8-7.2c1.7-2.2,4.5-3.7,7.5-3.9
				c6-0.5,11.5,3.5,12.4,9c0.4,2.6-0.2,5.1-1.8,7.2c-1.7,2.2-4.5,3.7-7.5,3.9C134.2,233.5,133.8,233.5,133.4,233.5z M132.5,215.1
				c-0.3,0-0.6,0-0.9,0c-2.5,0.2-4.8,1.4-6.2,3.3c-1.3,1.7-1.8,3.7-1.5,5.8c0.7,4.6,5.4,8,10.5,7.5c2.5-0.2,4.8-1.4,6.2-3.3
				c1.3-1.7,1.8-3.7,1.5-5.8C141.4,218.3,137.2,215.1,132.5,215.1z"/>
			<path class="st10" d="M129,233.5c-0.4,0-0.7,0-1.1,0c-3-0.3-5.7-1.7-7.5-3.9c-1.6-2-2.2-4.6-1.8-7.2c0.9-5.5,6.4-9.6,12.4-9
				c3,0.3,5.7,1.7,7.5,3.9c1.6,2,2.2,4.6,1.8,7.2C139.5,229.6,134.5,233.5,129,233.5z M129.9,215.1c-4.7,0-8.9,3.2-9.6,7.6
				c-0.3,2.1,0.2,4.1,1.5,5.8c1.4,1.8,3.7,3,6.2,3.3c5.1,0.5,9.8-2.9,10.5-7.5c0.3-2.1-0.2-4.1-1.5-5.8c-1.4-1.8-3.7-3-6.2-3.3
				C130.5,215.1,130.2,215.1,129.9,215.1z"/>
		</g>
		<rect x="218.4" y="110.6" class="st10" width="17.6" height="130.1"/>
		<polygon class="st15" points="236,180.2 218.4,180.2 218.4,214.2 236,212 		"/>
		<polygon class="st15" points="236,111.4 218.4,111.4 218.4,121.3 236,119.2 		"/>
		<path class="st13" d="M181.2,204.4l-4.9-71.3c-0.2-2.5,1.8-4.7,4.4-4.7h109.4c2.3,0,4.2,1.8,4.4,4.1l4.9,71.3
			c0.2,2.5-1.8,4.7-4.4,4.7H185.6C183.3,208.5,181.4,206.7,181.2,204.4z"/>
		<g>
			<path class="st10" d="M288.9,131.7H182.2c-1.4,0-2.6,1.2-2.5,2.7l4.7,68.6c0.1,1.3,1.2,2.3,2.5,2.3h106.7c1.4,0,2.6-1.2,2.5-2.7
				l-4.7-68.6C291.3,132.7,290.2,131.7,288.9,131.7z"/>
			<path class="st12" d="M288.9,131.7H182.2c-1.4,0-2.6,1.2-2.5,2.7l4.7,68.6c0.1,1.3,1.2,2.3,2.5,2.3h106.7c1.4,0,2.6-1.2,2.5-2.7
				l-4.7-68.6C291.3,132.7,290.2,131.7,288.9,131.7z"/>
		</g>
		<rect x="196.3" y="238.2" class="st13" width="93.7" height="2.4"/>
		<polygon class="st17" points="263.9,197.2 193.4,197.2 189.5,140.4 260,140.4 		"/>
		<polygon class="st17" points="284,145.5 265,145.5 264.7,140.4 283.7,140.4 		"/>
		<polygon class="st17" points="285.4,166 266.4,166 265.4,151.5 284.4,151.5 		"/>
		<rect x="209" y="90.1" class="st10" width="35.4" height="26.4"/>
		<rect x="209" y="90.1" class="st15" width="14.7" height="26.4"/>
	</g>
</g>
<g id="Character_1_">
	<g>
		<path class="st18" d="M320.8,203.8l2-2.5c0.7-0.9,1.9-1.5,3.1-1.4l5.6,0.3c2.2,0.1,4.3,1.3,5.5,3.1l0.7,1.2
			c-3,4.4-9.4,6.9-9.4,6.9l-1.7,0.9c-1.6,0.8-3.4,0.3-4.2-1.2l-1.9-3.4C319.8,206.5,319.9,204.9,320.8,203.8z"/>
		<path class="st18" d="M340.2,153.9c0.6,0.7,1,1.2,1.4,1.8s0.8,1.2,1.2,1.7c0.8,1.2,1.6,2.3,2.3,3.5c1.5,2.4,2.8,4.8,4,7.4
			c0.6,1.3,1.2,2.6,1.8,3.9c0.5,1.3,1.1,2.6,1.5,4c1,2.7,1.7,5.5,2.3,8.3l0.1,0.5c0.1,0.3,0.1,0.6,0.1,1c0,1.9-0.4,3.7-1,5.2
			s-1.4,2.8-2.1,3.9c-1.6,2.2-3.4,3.8-5.2,5.2c-1.8,1.4-3.7,2.6-5.6,3.6s-3.8,1.9-6,2.6c-2,0.7-4.1-0.4-4.8-2.4
			c-0.5-1.4-0.1-2.9,0.9-3.9l0.2-0.2c1.2-1.2,2.6-2.6,3.9-3.9c1.3-1.3,2.4-2.6,3.4-3.9c1-1.3,1.8-2.6,2.3-3.8c0.5-1.1,0.4-1.9,0.3-2
			l0.2,1.4c-0.7-2.2-1.5-4.3-2.5-6.4c-1-2.1-2-4.2-3.2-6.3s-2.4-4.1-3.6-6.1c-0.6-1-1.3-2-2-3l-1-1.4l-0.9-1.3L328,163
			c-2.4-3.4-1.6-8.1,1.8-10.5C333.2,150.3,337.7,150.9,340.2,153.9z"/>
		<path class="st13" d="M326.4,145.5c-2.8,6.4-2.6,14.4,6,26.6c5.7,0.6,16.4-6.8,16.4-6.8S341.5,144.8,326.4,145.5z"/>
		<path class="st18" d="M321.6,123.2c-1.7,6.2-3.7,17.6,0.3,21.7c0,0-5.9-0.9-18.3,6.8c-3.6-5.2-0.9-6.8-0.9-6.8
			c7-1.7,7.2-6.8,6.4-11.6L321.6,123.2z"/>
		<path class="st10" d="M296.3,149.5c1.8-4,6.2-7.8,9.2-7.2s4.8,1.5,6.6,0c1.8-1.5,6.2-3.7,8.4-1.2c3.1,3.5,7.9,1,6.1,4.8
			C324.7,150,296.3,149.5,296.3,149.5z"/>
		<path class="st13" d="M299.1,111.8c-0.1,0.8-0.7,1.5-1.2,1.5s-0.9-0.8-0.8-1.6c0.1-0.8,0.7-1.5,1.2-1.5
			C298.9,110.3,299.2,111,299.1,111.8z"/>
		<path class="st13" d="M298.6,110.3l-1.9-0.7C296.7,109.6,297.5,111.2,298.6,110.3z"/>
		<path class="st19" d="M298.9,113.4c0,0-1.9,3.5-3.7,5.2c0.9,1.1,2.9,0.8,2.9,0.8L298.9,113.4z"/>
		<path class="st13" d="M297.7,105.1c-0.1-0.1-0.1-0.2-0.1-0.4c0.1-0.3,0.3-0.4,0.6-0.3c2.7,0.7,3.6,2.8,3.6,2.9
			c0.1,0.3,0,0.5-0.3,0.6s-0.6-0.1-0.7-0.3c0-0.1-0.7-1.7-2.9-2.3C297.9,105.3,297.7,105.2,297.7,105.1z"/>
		<path class="st18" d="M326.9,110.8c-1.9,10-2.5,14.3-8.2,19.1c-8.6,7.2-20.4,3.4-21.5-6.8c-1-9.2,2.2-24,12.5-27.3
			C319.9,92.5,328.8,100.8,326.9,110.8z"/>
		<path class="st13" d="M304.5,114c-3.6-5.7-7.5-12.8-5.1-17.7c2.5-4.9,8-3.8,8-3.8s10.8-6.1,20.5,1.8c12.9,10.5-0.9,22.1-4.3,32.2
			C319.9,137.6,300.4,124.2,304.5,114z"/>
		<g>
			<path class="st13" d="M359.9,95.6c-5.2-19.4-28.2-10.5-34.8,1l2.7,0.7c27.4-17.7,13.9,7.9,14.1,18.3s10.6,16.8,10.6,16.8
				S365.1,115.1,359.9,95.6z"/>
			<path class="st13" d="M353,130c-2.9,0-7-0.6-9.7-3.2c-2.4-2.4-3.1-6.1-2.2-11c0.3-1.5,0.8-3.4,1.3-5.3c1.6-6,3.5-13.4,0.4-16
				c-2.2-1.8-6.8-1.2-13.6,1.9c-0.1,0.1-0.3,0-0.3-0.1c-0.1-0.1,0-0.3,0.1-0.3c7.2-3.2,11.8-3.9,14.2-1.8c3.3,2.8,1.4,10.1-0.3,16.5
				c-0.5,1.9-1,3.7-1.3,5.2c-0.9,4.7-0.2,8.3,2.1,10.6c4.3,4.3,12.7,2.8,12.8,2.8c0.1,0,0.3,0.1,0.3,0.2c0,0.1-0.1,0.3-0.2,0.3
				C356.4,129.8,355,130,353,130z"/>
		</g>
		<path class="st10" d="M328.4,92.3c0.3-1.3-2.9-0.7-3.1,0.4c-0.1,1.1-0.6,0.5-1.8,2.2c-1.2,1.6-1.4,3.6,2.7,4.9
			c2.6,0.8,3-1.2,4.3-2.2c0.7-0.5,1.5-0.8,2.1-1.2c0.6-0.5,0.3-1.4-0.4-1.5C330.5,94.7,328.1,93.6,328.4,92.3z"/>
		<path class="st18" d="M306.3,117.6c-1.1,2-2.8,3.2-4.4,3.5c-2.4,0.5-3.2-2.2-2.4-4.8c0.8-2.4,3-5.5,5.2-4.8
			C307,112.1,307.6,115.3,306.3,117.6z"/>
		<path class="st13" d="M349.1,421.2c7.8-1.2,7.9-2.4,12.1-3.9c3.6-1.3,4.6-1.1,7.5-2.1c2.4-0.8,1.6-3.1,0-5.5
			c-0.8-1.2-0.9-2.4-1.8-4.6l-11.8,1.8c-1.1,3.3-1.6,7.5-8.3,9.9C342.8,418.2,346,421.6,349.1,421.2z"/>
		<path class="st13" d="M277.1,421.2c7.7,0,9.2-0.5,13.6-0.7c3.7-0.1,4.3,0.7,8.1,0.7c2.5,0,2.8-2.8,1.9-4.9
			c-0.7-1.6-0.8-3.6-1.3-5.7h-10.7c-1.9,3.4-7.2,5.9-13,6.3C271.5,417.1,274,421.2,277.1,421.2z"/>
		<path class="st13" d="M286.1,210.6c0,0-1.5,55.6,1.8,90.9c-0.2,33.1,0.8,109,0.8,109c0.3,1.7,9.1,1,10.7,0c0,0,16.6-55.3,9.3-109
			c18.5-56.1,14.5-90.9,14.5-90.9H286.1z"/>
		<path class="st13" d="M297.2,210.6c0,0,18.1,62.7,25.4,93.5c7.7,32.4,30.6,81.3,32.5,102.7c2,0.8,8.4-0.1,11.8-1.8
			c0,0-3.1-68.4-21.7-99.5c4.2-76.6-16.6-95-16.6-95h-31.4V210.6z"/>
		<path class="st10" d="M353.5,402.6c0.1,1.1,0.3,3,0.2,4.4c0,0.5,0.4,1,0.9,1c4.4,0.1,10.5-1.9,12.5-2.5c0.4-0.1,0.6-0.5,0.6-0.9
			v-4.2c0-0.6-0.5-1-1.1-0.9l-12.4,2.1C353.8,401.7,353.5,402.1,353.5,402.6z"/>
		<path class="st10" d="M287.5,405.9c0,1.2-0.1,3.2-0.2,4.7c0,0.5,0.3,0.9,0.8,1c3.8,0.5,9.8,0,11.8-0.1c0.4,0,0.7-0.3,0.8-0.7
			l0.8-4.1c0.1-0.6-0.3-1.1-0.9-1.1l-12.1-0.5C287.9,405,287.5,405.4,287.5,405.9z"/>
		<path class="st13" d="M283.7,160.7c-0.1,4.2-0.3,9.5,0.3,19.4c0.3,8.4,0.9,16.7,2.1,30.5h42.4c-0.9-12,0.5-25.6,8.2-52.5
			c1.8-6.2-2.2-12.2-8.5-12.9c-1.7-0.2-3.5-0.3-5.3-0.4c-7.1-0.3-12.9-0.6-19.3,0c-2.1,0.2-4.3,0.5-6.3,0.7
			C289.9,146.7,284,153.2,283.7,160.7z"/>
		<path class="st10" d="M328.4,205.4c-8.5,2.2-21.4,2.8-42.6,0.5c0.5,11.3-4.4,86.9-4.4,86.9s43,9.5,67.3-3.4
			C350.2,232.3,328.4,205.4,328.4,205.4z"/>
		<path class="st14" d="M312.1,251c0,0,11.7-10.9,17.4-18.3C329.1,240.5,322.1,247.5,312.1,251z"/>
		<path class="st18" d="M247.8,160.6l2.8,1.4c1.1,0.5,1.8,1.6,2,2.7l0.8,5.5c0.3,2.2-0.4,4.4-2,6l-1,1c-4.8-2.1-8.6-7.8-8.6-7.8
			l-1.2-1.5c-1.1-1.4-1-3.3,0.4-4.3l3-2.5C245,160.1,246.5,160,247.8,160.6z"/>
		<path class="st18" d="M298.4,161.6c-0.3,0.9-0.5,1.5-0.8,2.1c-0.3,0.7-0.6,1.3-0.8,2c-0.6,1.3-1.2,2.5-1.8,3.8
			c-1.3,2.5-2.7,4.9-4.2,7.3c-0.8,1.2-1.6,2.3-2.4,3.5c-0.9,1.1-1.7,2.3-2.6,3.4c-1.8,2.2-3.8,4.3-5.9,6.3l-0.3,0.3
			c-0.3,0.2-0.5,0.5-0.8,0.6c-1.3,0.8-2.7,1.3-4,1.5s-2.5,0.2-3.6,0.1c-2.1-0.2-3.8-0.8-5.3-1.5c-2.9-1.3-5.1-2.9-7.2-4.6
			c-2.1-1.7-3.9-3.4-5.7-5.3c-1.7-1.9-3.3-3.7-4.9-5.9c-1.2-1.7-0.8-4,0.9-5.3c1.3-0.9,3-0.9,4.2-0.1l0.2,0.1
			c1.9,1.2,3.8,2.5,5.8,3.7c1.9,1.2,3.9,2.3,5.8,3.3s3.8,1.8,5.4,2.2c0.8,0.2,1.4,0.2,1.7,0.2c0.1,0,0.1-0.1,0-0.1s-0.4,0.1-0.7,0.2
			l-1.1,0.9c1.5-1.8,2.9-3.6,4.2-5.5c1.3-1.9,2.6-3.9,3.8-6c1.2-2.1,2.3-4.1,3.4-6.3c0.5-1.1,1-2.1,1.5-3.2l0.7-1.6l0.6-1.5l0.2-0.4
			c1.7-3.8,6.1-5.5,9.9-3.9C298,153.8,299.7,157.9,298.4,161.6z"/>
		<path class="st13" d="M298.5,145.5c-6.9,0.9-13.7,5.2-19.6,18.9c2.4,5.2,14.3,10.5,14.3,10.5S306.9,158,298.5,145.5z"/>
	</g>
</g>
</svg>
