<?xml version="1.0" encoding="utf-8"?>
<!-- Generator: Adobe Illustrator 26.3.0, SVG Export Plug-In . SVG Version: 6.00 Build 0)  -->
<svg version="1.1" id="Capa_1" xmlns="http://www.w3.org/2000/svg" xmlns:xlink="http://www.w3.org/1999/xlink" x="0px" y="0px"
	 viewBox="0 0 605.8 143.6" style="enable-background:new 0 0 605.8 143.6;" xml:space="preserve">
<style type="text/css">
	.st0{fill:#FFFFFF;}
	.st1{fill:#263238;}
	.st2{fill:#263238;stroke:#FFFFFF;stroke-width:0.75;stroke-miterlimit:10;}
</style>
<g>
	<path class="st0" d="M230.1,57.1l-23,42.4v31.2h-21.9V99.6l-24.8-42.4h24.7L198,81.4l12.4-24.3H230.1z"/>
	<path class="st0" d="M269.5,130.7l-4.2-14.5h-19.7l-4.4,14.5h-18.3l22.7-73.6h23.9l23.1,73.6H269.5z M249.5,100.2h11.9l-6-21.3
		L249.5,100.2z"/>
	<path class="st0" d="M364.9,130.7h-25l-10.8-28.1h-7.1v28.1h-22.6V57.1h38.4c8.5,0,15.1,2,19.8,6c4.7,4,7,9.2,7,15.7
		c0,4.2-0.9,8-2.6,11.2c-1.7,3.3-5.2,6.1-10.5,8.6L364.9,130.7z M321.9,86.9h9.7c2.8,0,5.1-0.6,6.8-1.8c1.7-1.2,2.6-2.9,2.6-5.2
		c0-4.7-2.9-7.1-8.7-7.1h-10.4V86.9z"/>
	<path class="st0" d="M430.9,113.2v17.6h-55.4V57.1h55.4v17h-33.2v10.7h26.8v16.3h-26.8v12H430.9z"/>
	<path class="st0" d="M480.3,102.7l20.7,1.2c-1,9-4.3,15.9-10,20.8c-5.7,4.8-12.7,7.2-21,7.2c-10,0-18.1-3.3-24.2-9.9
		c-6.1-6.6-9.2-15.7-9.2-27.4c0-11.5,2.9-20.8,8.7-27.9c5.8-7.1,13.9-10.6,24.4-10.6c9.7,0,17.2,2.7,22.5,8.1
		c5.2,5.4,8.2,12.5,8.9,21.5l-21.1,1.1c0-4.9-0.9-8.5-2.8-10.7c-1.9-2.2-4.1-3.3-6.7-3.3c-7.1,0-10.7,7.2-10.7,21.5
		c0,8,0.9,13.5,2.8,16.3c1.9,2.9,4.4,4.3,7.8,4.3C476.3,114.8,479.6,110.8,480.3,102.7z"/>
	<path class="st0" d="M571.7,57.1v73.6h-22.6v-28.6h-17.3v28.6h-22.6V57.1h22.6v27.1h17.3V57.1H571.7z"/>
</g>
<g>
	<path class="st0" d="M161.1,50.9V17h4.8v33.9H161.1z M161.1,21.5V17h22.5v4.5H161.1z M161.1,37.6v-4.5h18.2v4.5H161.1z"/>
	<path class="st0" d="M189.3,50.9V17h4.8v33.9H189.3z M189.3,21.5V17h22.5v4.5H189.3z M189.3,36.2v-4.5h18.2v4.5H189.3z M189.3,50.9
		v-4.5h22.5v4.5H189.3z"/>
	<path class="st0" d="M217.5,50.9V17h4.8v33.9H217.5z M221.9,38v-4.5h7.2c1.9,0,3.4-0.5,4.4-1.5c1.1-1,1.6-2.4,1.6-4.2
		c0-2-0.5-3.5-1.6-4.6c-1.1-1.1-2.5-1.6-4.4-1.6H222l-0.6-4.5h7.7c3.5,0,6.2,0.9,8.2,2.7c1.9,1.8,2.9,4.3,2.9,7.6
		c0,3.4-1,6.1-2.9,7.9c-1.9,1.9-4.6,2.8-8.2,2.8H221.9z M235.7,50.9l-7.6-16h5.3l8.1,16H235.7z"/>
	<path class="st0" d="M246.1,50.9V17h4.8v33.9H246.1z M250.6,38v-4.5h7.2c1.9,0,3.4-0.5,4.4-1.5c1.1-1,1.6-2.4,1.6-4.2
		c0-2-0.5-3.5-1.6-4.6c-1.1-1.1-2.5-1.6-4.4-1.6h-7.1l-0.6-4.5h7.7c3.5,0,6.2,0.9,8.2,2.7c1.9,1.8,2.9,4.3,2.9,7.6
		c0,3.4-1,6.1-2.9,7.9c-1.9,1.9-4.6,2.8-8.2,2.8H250.6z M264.3,50.9l-7.6-16h5.3l8.1,16H264.3z"/>
	<path class="st0" d="M275.3,50.9V17h4.8v33.9H275.3z M275.3,21.5V17h22.5v4.5H275.3z M275.3,36.2v-4.5h18.2v4.5H275.3z M275.3,50.9
		v-4.5h22.5v4.5H275.3z"/>
	<path class="st0" d="M302,21.5V17h24.8v4.5H302z M312.1,50.9V17h4.8v33.9H312.1z"/>
	<path class="st0" d="M332.6,50.9V17h4.8v33.9H332.6z M332.6,21.5V17h22.5v4.5H332.6z M332.6,36.2v-4.5h18.2v4.5H332.6z M332.6,50.9
		v-4.5h22.5v4.5H332.6z"/>
	<path class="st0" d="M360.8,50.9V17h4.8v33.9H360.8z M365.2,38v-4.5h7.2c1.9,0,3.4-0.5,4.4-1.5c1.1-1,1.6-2.4,1.6-4.2
		c0-2-0.5-3.5-1.6-4.6c-1.1-1.1-2.5-1.6-4.4-1.6h-7.1l-0.6-4.5h7.7c3.5,0,6.2,0.9,8.2,2.7c1.9,1.8,2.9,4.3,2.9,7.6
		c0,3.4-1,6.1-2.9,7.9c-1.9,1.9-4.6,2.8-8.2,2.8H365.2z M379,50.9l-7.6-16h5.3l8.1,16H379z"/>
	<path class="st0" d="M390.1,21.5V17h20.6v4.5H390.1z M390.1,50.9v-4.5h20.6v4.5H390.1z M398,50.9V17h4.8v33.9H398z"/>
	<path class="st0" d="M415.8,50.9l9.8-33.9h6.9l9.8,33.9h-5l-8-29.8h-0.4l-8,29.8H415.8z M420.4,42.6v-4.5h17.2v4.5H420.4z"/>
</g>
<g>
	<path class="st0" d="M68.9,2.9L3.4,68.4c-1.9,1.9-1.9,4.9,0,6.8l65.6,65.6c1.9,1.9,4.9,1.9,6.8,0l65.6-65.6c1.9-1.9,1.9-4.9,0-6.8
		L75.7,2.9C73.8,1,70.8,1,68.9,2.9z M139,68.4c1.9,1.9,1.9,4.9,0,6.8l-63.3,63.3c-1.9,1.9-4.9,1.9-6.8,0L5.6,75.2
		c-1.9-1.9-1.9-4.9,0-6.8L68.9,5.1c1.9-1.9,4.9-1.9,6.8,0L139,68.4z"/>
	<g>
		<path class="st0" d="M100,41.9l-23,23c-2.6,2.6-6.8,2.6-9.3,0l-23-23c-2.6-2.6-2.6-6.8,0-9.3l23-23C70.2,7,74.4,7,77,9.5l23,23
			C102.5,35.1,102.5,39.3,100,41.9z"/>
		<path class="st0" d="M100,111.1l-23,23c-2.6,2.6-6.8,2.6-9.3,0l-23-23c-2.6-2.6-2.6-6.8,0-9.3l23-23c2.6-2.6,6.8-2.6,9.3,0l23,23
			C102.5,104.3,102.5,108.5,100,111.1z"/>
		<g>
			<path class="st0" d="M65.4,76.5l-23,23c-2.6,2.6-6.8,2.6-9.3,0l-23-23c-2.6-2.6-2.6-6.8,0-9.3l23-23c2.6-2.6,6.8-2.6,9.3,0l23,23
				C67.9,69.7,67.9,73.9,65.4,76.5z"/>
			<path class="st0" d="M134.5,76.5l-23,23c-2.6,2.6-6.8,2.6-9.3,0l-23-23c-2.6-2.6-2.6-6.8,0-9.3l23-23c2.6-2.6,6.8-2.6,9.3,0
				l23,23C137.1,69.7,137.1,73.9,134.5,76.5z"/>
		</g>
	</g>
</g>
<g>
	<g>
		<g>
			<rect x="36.5" y="59.8" class="st1" width="2.3" height="10.4"/>
		</g>
		<g>
			<path class="st1" d="M35.6,54.7c-1.4,0.8-2.8,0-2.8,0h-0.5v2.7h0.5c0,0,1.4-0.8,2.8,0c0,0,0.4-0.1,0.5,0c0.1,0.1,0-2.7,0-2.7
				H35.6z"/>
		</g>
		<g>
			<path class="st1" d="M33.1,57c0,0.5-0.4,0.9-0.9,0.9h-1.9c-0.5,0-0.9-0.4-0.9-0.9v-1.9c0-0.5,0.4-0.9,0.9-0.9h1.9
				c0.5,0,0.9,0.4,0.9,0.9V57z"/>
		</g>
		<g>
			<path class="st1" d="M39.7,60.2c0,0.6-0.5,1.1-1.1,1.1h-1.9c-0.6,0-1.1-0.5-1.1-1.1v-1.9c0-0.6,0.5-1.1,1.1-1.1h1.9
				c0.6,0,1.1,0.5,1.1,1.1V60.2z"/>
		</g>
		<g>
			<path class="st1" d="M40,53.9h-0.4h-0.6v2.8H40c0-1.7,2.6-0.8,2.7-0.7c1.9,0.9,2.4,2.2,2.4,2.2h0.3C45.4,54.2,40,53.9,40,53.9z"
				/>
		</g>
		<g>
			<rect x="35.3" y="53.9" class="st1" width="4.6" height="4.3"/>
		</g>
		<path class="st1" d="M38.7,66.8h-2.2c-0.5,0-0.9,0.4-0.9,0.9v6.5v11.4v6.5c0,0.5,0.4,0.9,0.9,0.9h2.2c0.5,0,0.9-0.4,0.9-0.9v-6.5
			V74.3v-6.5C39.6,67.2,39.2,66.8,38.7,66.8z"/>
	</g>
	<g>
		<rect x="35.7" y="72.7" class="st1" width="4" height="0.9"/>
		<rect x="35.7" y="71" class="st1" width="4" height="0.9"/>
		<rect x="35.7" y="74.4" class="st1" width="4" height="0.9"/>
	</g>
	<path class="st1" d="M35.7,80.6v5.1v6.5c0,0.5,0.4,0.9,0.9,0.9h2.2c0.5,0,0.9-0.4,0.9-0.9v-6.5v-7.9C38.5,78.5,36.9,79.5,35.7,80.6
		z"/>
</g>
<g>
	<g>
		<g>
			<g>
				<path class="st1" d="M107.5,51l1.6,3.9l-1.1,1.2h-1.6l-1.8-3.7c0,0-2.8,1.8-1.2,8.3c0,0,0.5,2.2,1.9,3.8v25.5c0,0.2,0,1,0,1.3
					c0,1.1,0.9,2,2,2c1.1,0,2-0.9,2-2c0-0.3,0-1.1,0-1.3V64.1c0.3-0.9,1.1-3.2,2.7-5C112,59.1,116.3,53.7,107.5,51z M107.2,92.8
					c-0.9,0-1.6-0.7-1.6-1.6c0-0.9,0.7-1.6,1.6-1.6c0.9,0,1.6,0.7,1.6,1.6C108.8,92.1,108.1,92.8,107.2,92.8z"/>
			</g>
			<g>
				<path class="st1" d="M107.5,51l1.6,3.9l-1.1,1.2l-0.4,0.2l0,0l-5.7,2.9l1,2.2l0.6-0.2l0,0l9.1-3.1C113.4,56.3,113.8,53,107.5,51
					z"/>
			</g>
			<g>
				<path class="st1" d="M108.4,77c0,0.7-0.6,1.3-1.3,1.3l0,0c-0.7,0-1.3-0.6-1.3-1.3V66.5c0-0.7,0.6-1.3,1.3-1.3l0,0
					c0.7,0,1.3,0.6,1.3,1.3V77z"/>
			</g>
			<g>
				<path class="st1" d="M108.2,59.5c0.2,0.5-0.1,1.1-0.6,1.3l-1,0.4c-0.5,0.2-1.1-0.1-1.3-0.6l0,0c-0.2-0.5,0.1-1.1,0.6-1.3l1-0.4
					C107.4,58.7,108,58.9,108.2,59.5L108.2,59.5z"/>
			</g>
			<g>
				<g>
					<path class="st1" d="M106.4,60.9c0,0.1,0,0.2-0.1,0.3l0,0c-0.1,0-0.2,0-0.3-0.1l-0.5-1.5c0-0.1,0-0.2,0.1-0.3l0,0
						c0.1,0,0.2,0,0.3,0.1L106.4,60.9z"/>
				</g>
				<g>
					<path class="st1" d="M106.9,60.7c0,0.1,0,0.2-0.1,0.3l0,0c-0.1,0-0.2,0-0.3-0.1l-0.5-1.5c0-0.1,0-0.2,0.1-0.3l0,0
						c0.1,0,0.2,0,0.3,0.1L106.9,60.7z"/>
				</g>
				<g>
					<path class="st1" d="M107.5,60.5c0,0.1,0,0.2-0.1,0.3l0,0c-0.1,0-0.2,0-0.3-0.1l-0.5-1.5c0-0.1,0-0.2,0.1-0.3l0,0
						c0.1,0,0.2,0,0.3,0.1L107.5,60.5z"/>
				</g>
				<g>
					<path class="st1" d="M108,60.4c0,0.1,0,0.2-0.1,0.3l0,0c-0.1,0-0.2,0-0.3-0.1l-0.5-1.5c0-0.1,0-0.2,0.1-0.3l0,0
						c0.1,0,0.2,0,0.3,0.1L108,60.4z"/>
				</g>
			</g>
		</g>
	</g>
	<path class="st1" d="M109.4,69.9h-4.3c-0.1,0-0.2,0.1-0.2,0.2v2.6v18.3v0.4c0,1.3,1.1,2.4,2.4,2.4s2.4-1.1,2.4-2.4v-0.4V72.7v-2.6
		C109.7,70,109.6,69.9,109.4,69.9z"/>
	<path class="st1" d="M109.7,91.5v-0.4V72.7v-0.1c-1.1,1.2-2.3,3.3-2.9,6.9c0,0-0.4,2-1.9,4.2v7.3v0.4c0,1.3,1.1,2.4,2.4,2.4
		S109.7,92.8,109.7,91.5z"/>
	<g>
		<path class="st1" d="M107.7,83.9c0,0.3-0.2,0.5-0.5,0.5c-0.3,0-0.5-0.2-0.5-0.5c0-0.3,0.2-0.5,0.5-0.5
			C107.5,83.5,107.7,83.7,107.7,83.9z"/>
		<path class="st1" d="M107.7,86.4c0,0.3-0.2,0.5-0.5,0.5c-0.3,0-0.5-0.2-0.5-0.5c0-0.3,0.2-0.5,0.5-0.5
			C107.5,85.9,107.7,86.1,107.7,86.4z"/>
		<path class="st1" d="M107.7,88.9c0,0.3-0.2,0.5-0.5,0.5c-0.3,0-0.5-0.2-0.5-0.5c0-0.3,0.2-0.5,0.5-0.5
			C107.5,88.4,107.7,88.6,107.7,88.9z"/>
		<path class="st1" d="M107.7,91.3c0,0.3-0.2,0.5-0.5,0.5c-0.3,0-0.5-0.2-0.5-0.5c0-0.3,0.2-0.5,0.5-0.5
			C107.5,90.9,107.7,91.1,107.7,91.3z"/>
	</g>
</g>
<g>
	<rect x="56.9" y="29.8" class="st1" width="3" height="3.1"/>
	<rect x="56.9" y="32.4" class="st1" width="3" height="0.6"/>
	<path class="st1" d="M64.5,31.8c0,0.5-0.4,0.9-0.8,0.9h-1.5c-0.4,0-0.8-0.4-0.8-0.9V31c0-0.5,0.4-0.9,0.8-0.9h1.5
		c0.4,0,0.8,0.4,0.8,0.9V31.8z"/>
	<path class="st1" d="M62.6,32.8c0,0.4-0.4,0.8-0.8,0.8h-2.2c-0.4,0-0.8-0.4-0.8-0.8v-2.7c0-0.4,0.4-0.8,0.8-0.8h2.2
		c0.4,0,0.8,0.4,0.8,0.8V32.8z"/>
	<path class="st1" d="M61.8,32.8h-2.2c-0.4,0-0.8-0.4-0.8-0.8v0.7c0,0.4,0.4,0.8,0.8,0.8h2.2c0.4,0,0.8-0.4,0.8-0.8V32
		C62.6,32.5,62.2,32.8,61.8,32.8z"/>
	<polygon class="st1" points="74.5,28.5 64.1,28.5 63.2,29 63.2,34 64.2,34.8 64.2,35.2 64.9,35.9 75.3,35.9 75.3,29.4 	"/>
	<path class="st1" d="M85.2,47.9c0-9-3-15.6-3-15.6v-1.1l0.6-0.9l-0.5-0.9h-12l-0.6,0.9h-1.4v8.3H78l2.9,9.6l-1,1v1h5.8v-1
		L85.2,47.9z"/>
	<path class="st1" d="M83.3,41.2c0,1-0.8,1.8-1.8,1.8c-1,0-1.8-0.8-1.8-1.8c0-1,0.8-1.8,1.8-1.8C82.5,39.5,83.3,40.3,83.3,41.2z"/>
	<polygon class="st1" points="68.3,30.3 68.3,38.6 66.7,37.3 66.7,33.1 	"/>
	<path class="st1" d="M73.9,38.6l0.6,1.3h2l0.7,0.6l0.8,3.2c0,0,0.6,0.3,1.6,0L78,38.6H73.9z"/>
	<path class="st1" d="M69.3,33.5c0,0.2-0.1,0.3-0.3,0.3l0,0c-0.2,0-0.3-0.1-0.3-0.3v-2.1c0-0.2,0.1-0.3,0.3-0.3l0,0
		c0.2,0,0.3,0.1,0.3,0.3V33.5z"/>
	<path class="st1" d="M69.3,37.1c0,0.2-0.1,0.3-0.3,0.3l0,0c-0.2,0-0.3-0.1-0.3-0.3v-2.1c0-0.2,0.1-0.3,0.3-0.3l0,0
		c0.2,0,0.3,0.1,0.3,0.3V37.1z"/>
	<path class="st1" d="M79.1,39.4c-0.2-0.7-1.1-0.8-1.1-0.8h-4.1l0.2,0.6h3.3l1.4,4.7c0.2,0,0.4,0,0.7-0.1c0.3-0.2,0.3-0.7,0.3-0.7
		C79.8,42.5,79.1,39.4,79.1,39.4z"/>
	<path class="st1" d="M82.7,41.2c0,0.6-0.5,1.2-1.2,1.2c-0.6,0-1.2-0.5-1.2-1.2c0-0.6,0.5-1.2,1.2-1.2
		C82.2,40.1,82.7,40.6,82.7,41.2z"/>
	<path class="st1" d="M82.4,41.2c0,0.5-0.4,0.9-0.9,0.9c-0.5,0-0.9-0.4-0.9-0.9c0-0.5,0.4-0.9,0.9-0.9C82,40.4,82.4,40.8,82.4,41.2z
		"/>
	<path class="st1" d="M76.7,35.5c0,0.4-0.4,0.8-0.8,0.8h-4.4c-0.4,0-0.8-0.4-0.8-0.8v-2.8c0-0.4,0.4-0.8,0.8-0.8h4.4
		c0.4,0,0.8,0.4,0.8,0.8V35.5z"/>
	<g>
		<path class="st1" d="M79.7,32.2c0,0.1-0.1,0.2-0.2,0.2h-1.7c-0.1,0-0.2-0.1-0.2-0.2l0,0c0-0.1,0.1-0.2,0.2-0.2h1.7
			C79.6,32,79.7,32.1,79.7,32.2L79.7,32.2z"/>
		<path class="st1" d="M79.7,33c0,0.1-0.1,0.2-0.2,0.2h-1.7c-0.1,0-0.2-0.1-0.2-0.2l0,0c0-0.1,0.1-0.2,0.2-0.2h1.7
			C79.6,32.8,79.7,32.9,79.7,33L79.7,33z"/>
		<path class="st1" d="M79.7,33.8c0,0.1-0.1,0.2-0.2,0.2h-1.7c-0.1,0-0.2-0.1-0.2-0.2l0,0c0-0.1,0.1-0.2,0.2-0.2h1.7
			C79.6,33.6,79.7,33.7,79.7,33.8L79.7,33.8z"/>
		<path class="st1" d="M79.7,34.6c0,0.1-0.1,0.2-0.2,0.2h-1.7c-0.1,0-0.2-0.1-0.2-0.2l0,0c0-0.1,0.1-0.2,0.2-0.2h1.7
			C79.6,34.3,79.7,34.4,79.7,34.6L79.7,34.6z"/>
		<path class="st1" d="M79.7,35.3c0,0.1-0.1,0.2-0.2,0.2h-1.7c-0.1,0-0.2-0.1-0.2-0.2l0,0c0-0.1,0.1-0.2,0.2-0.2h1.7
			C79.6,35.1,79.7,35.2,79.7,35.3L79.7,35.3z"/>
		<path class="st1" d="M79.7,36.1c0,0.1-0.1,0.2-0.2,0.2h-1.7c-0.1,0-0.2-0.1-0.2-0.2l0,0c0-0.1,0.1-0.2,0.2-0.2h1.7
			C79.6,35.9,79.7,36,79.7,36.1L79.7,36.1z"/>
	</g>
	<polygon class="st1" points="67.4,29.7 68.3,30.3 69.7,30.3 70.3,29.4 72.2,29.4 72.2,28.5 64.1,28.5 63.2,29 64.4,29.7 	"/>
	<polygon class="st1" points="64.2,34.8 64.9,34.8 64.9,35.9 64.2,35.2 	"/>
	<polygon class="st1" points="79.9,49.2 85.2,47.9 85.7,49.2 85.7,50.2 79.9,50.2 	"/>
	<polygon class="st1" points="79.9,49.6 85.7,49.2 85.7,50.2 79.9,50.2 	"/>
	<g>
		<path class="st1" d="M79.5,30.5c0.1,0,0.2-0.1,0.2-0.2v-0.9h-0.4v0.9C79.3,30.4,79.4,30.5,79.5,30.5z"/>
		<path class="st1" d="M78.7,30.5c0.1,0,0.2-0.1,0.2-0.2v-0.9h-0.4v0.9C78.5,30.4,78.6,30.5,78.7,30.5z"/>
		<path class="st1" d="M80.3,30.5c0.1,0,0.2-0.1,0.2-0.2v-0.9H80v0.9C80,30.4,80.1,30.5,80.3,30.5z"/>
		<path class="st1" d="M78.1,30.3v-0.9h-0.4v0.9c0,0.1,0.1,0.2,0.2,0.2C78,30.5,78.1,30.4,78.1,30.3z"/>
		<path class="st1" d="M77.1,30.5c0.1,0,0.2-0.1,0.2-0.2v-0.9h-0.4v0.9C76.9,30.4,77,30.5,77.1,30.5z"/>
		<path class="st1" d="M81,30.5c0.1,0,0.2-0.1,0.2-0.2v-0.9h-0.4v0.9C80.8,30.4,80.9,30.5,81,30.5z"/>
	</g>
	<polygon class="st1" points="56.9,29.8 56.3,30.3 56.3,32.5 56.9,33 	"/>
	<polygon class="st1" points="56.9,32.4 56.3,31.9 56.3,32.5 56.9,33 	"/>
	<polygon class="st1" points="54.6,31 54.6,31.9 56.3,32.3 56.3,31.9 56.3,31 56.3,30.6 	"/>
	<polygon class="st1" points="54.6,31.9 56.3,32.3 56.3,31.9 56.3,31.8 54.6,31.4 	"/>
</g>
<g>
	<path class="st1" d="M73.1,119.1c0,0.3-0.2,0.5-0.5,0.5l0,0c-0.3,0-0.5-0.2-0.5-0.5V93.8c0-0.3,0.2-0.5,0.5-0.5l0,0
		c0.3,0,0.5,0.2,0.5,0.5V119.1z"/>
	<path class="st1" d="M68.1,117.9c-0.1,3,0.1,9.5,4.6,10.9c4.5-1.4,4.7-7.9,4.6-10.9H68.1z"/>
	<path class="st1" d="M68.9,119.1c-0.1,3.2,0.1,8.5,3.7,9.7c3.6-1.1,3.8-6.4,3.7-9.7H68.9z"/>
	<path class="st1" d="M77.6,117.7c0-0.1-0.1-0.2-0.2-0.2h-9.6c-0.1,0-0.2,0.1-0.2,0.2l0,0c0,0.1,0.1,0.2,0.2,0.2h9.6
		C77.5,117.9,77.6,117.8,77.6,117.7L77.6,117.7z"/>
	<path class="st1" d="M72.6,93.3c-0.3,0-0.5,0.2-0.5,0.5v18.1h1.1V93.8C73.1,93.5,72.9,93.3,72.6,93.3z"/>
	<path class="st1" d="M73.5,94.6c0,0.1-0.1,0.2-0.2,0.2H72c-0.1,0-0.2-0.1-0.2-0.2v-2.7c0-0.1,0.1-0.2,0.2-0.2h1.3
		c0.1,0,0.2,0.1,0.2,0.2V94.6z"/>
	<path class="st2" d="M70.4,88c0,2.5,1,4.6,2.2,4.6c1.2,0,2.2-2,2.2-4.6H70.4z"/>
	<path class="st1" d="M75.5,88.2c0,0.1-0.1,0.2-0.2,0.2h-5.5c-0.1,0-0.2-0.1-0.2-0.2v-0.6c0-0.1,0.1-0.2,0.2-0.2h5.5
		c0.1,0,0.2,0.1,0.2,0.2V88.2z"/>
</g>
</svg>
