<?xml version="1.0" encoding="utf-8"?>
<!-- Generator: Adobe Illustrator 26.3.0, SVG Export Plug-In . SVG Version: 6.00 Build 0)  -->
<svg version="1.1" id="Capa_1" xmlns="http://www.w3.org/2000/svg" xmlns:xlink="http://www.w3.org/1999/xlink" x="0px" y="0px"
	 viewBox="0 0 443.2 143.6" style="enable-background:new 0 0 443.2 143.6;" xml:space="preserve">
<style type="text/css">
	.st0{fill:#353535;}
	.st1{fill:#F5922A;}
	.st2{fill:#363636;}
	.st3{fill:#FFFFFF;}
	.st4{fill:#FFFFFF;stroke:#FFFFFF;stroke-width:0.75;stroke-miterlimit:10;}
</style>
<g>
	<g>
		<path class="st0" d="M72.6,5L8.8,68.9c-1.9,1.9-1.9,4.8,0,6.6l63.9,63.9c1.9,1.9,4.8,1.9,6.6,0l63.9-63.9c1.9-1.9,1.9-4.8,0-6.6
			L79.2,5C77.4,3.2,74.5,3.2,72.6,5z M140.9,68.9c1.9,1.9,1.9,4.8,0,6.6l-61.7,61.7c-1.9,1.9-4.8,1.9-6.6,0L10.9,75.5
			c-1.9-1.9-1.9-4.8,0-6.6L72.6,7.2c1.9-1.9,4.8-1.9,6.6,0L140.9,68.9z"/>
		<g>
			<path class="st1" d="M102.9,43L80.5,65.5c-2.5,2.5-6.6,2.5-9.1,0L49,43c-2.5-2.5-2.5-6.6,0-9.1l22.4-22.4C73.9,9,78,9,80.5,11.5
				l22.4,22.4C105.4,36.4,105.4,40.5,102.9,43z"/>
			<path class="st1" d="M102.9,110.5l-22.4,22.4c-2.5,2.5-6.6,2.5-9.1,0L49,110.5c-2.5-2.5-2.5-6.6,0-9.1L71.4,79
				c2.5-2.5,6.6-2.5,9.1,0l22.4,22.4C105.4,103.8,105.4,107.9,102.9,110.5z"/>
			<g>
				<path class="st2" d="M69.2,76.8L46.8,99.2c-2.5,2.5-6.6,2.5-9.1,0L15.3,76.8c-2.5-2.5-2.5-6.6,0-9.1l22.4-22.4
					c2.5-2.5,6.6-2.5,9.1,0l22.4,22.4C71.6,70.1,71.6,74.2,69.2,76.8z"/>
				<path class="st2" d="M136.5,76.8l-22.4,22.4c-2.5,2.5-6.6,2.5-9.1,0L82.7,76.8c-2.5-2.5-2.5-6.6,0-9.1l22.4-22.4
					c2.5-2.5,6.6-2.5,9.1,0l22.4,22.4C139.1,70.1,139.1,74.2,136.5,76.8z"/>
			</g>
		</g>
	</g>
	<g>
		<g>
			<g>
				<rect x="42.1" y="59.2" class="st3" width="2.2" height="9.8"/>
			</g>
			<g>
				<path class="st3" d="M41.3,54.4c-1.3,0.8-2.6,0-2.6,0h-0.5V57h0.5c0,0,1.3-0.8,2.6,0c0,0,0.4-0.1,0.5,0c0.1,0.1,0-2.5,0-2.5
					H41.3z"/>
			</g>
			<g>
				<path class="st3" d="M38.9,56.6c0,0.5-0.4,0.8-0.8,0.8h-1.8c-0.5,0-0.8-0.4-0.8-0.8v-1.8c0-0.5,0.4-0.8,0.8-0.8h1.8
					c0.5,0,0.8,0.4,0.8,0.8V56.6z"/>
			</g>
			<g>
				<path class="st3" d="M45.1,59.6c0,0.6-0.5,1-1,1h-1.8c-0.6,0-1-0.5-1-1v-1.8c0-0.6,0.5-1,1-1h1.8c0.6,0,1,0.5,1,1V59.6z"/>
			</g>
			<g>
				<path class="st3" d="M45.4,53.7H45h-0.6v2.6h0.9c0-1.6,2.4-0.8,2.5-0.7c1.8,0.8,2.3,2.1,2.3,2.1h0.3
					C50.5,54,45.4,53.7,45.4,53.7z"/>
			</g>
			<g>
				<rect x="41" y="53.7" class="st3" width="4.3" height="4"/>
			</g>
			<path class="st3" d="M44.2,65.8h-2.1c-0.5,0-0.8,0.4-0.8,0.8v6.1v10.7v6.1c0,0.5,0.4,0.8,0.8,0.8h2.1c0.5,0,0.8-0.4,0.8-0.8v-6.1
				V72.9v-6.1C45,66.2,44.6,65.8,44.2,65.8z"/>
		</g>
		<g>
			<rect x="41.3" y="71.4" class="st3" width="3.8" height="0.8"/>
			<rect x="41.3" y="69.8" class="st3" width="3.8" height="0.8"/>
			<rect x="41.3" y="73" class="st3" width="3.8" height="0.8"/>
		</g>
		<path class="st3" d="M41.3,78.8v4.8v6.1c0,0.5,0.4,0.8,0.8,0.8h2.1c0.5,0,0.8-0.4,0.8-0.8v-6.1v-7.4C44,76.8,42.5,77.8,41.3,78.8z
			"/>
	</g>
	<g>
		<g>
			<g>
				<g>
					<path class="st3" d="M108.9,50.9l1.5,3.7l-1,1.1h-1.5l-1.7-3.5c0,0-2.6,1.7-1.1,7.8c0,0,0.5,2.1,1.8,3.6v24c0,0.2,0,0.9,0,1.2
						c0,1,0.8,1.9,1.9,1.9s1.9-0.8,1.9-1.9c0-0.3,0-1,0-1.2V63.3c0.3-0.8,1-3,2.5-4.7C113.1,58.6,117.2,53.5,108.9,50.9z
						 M108.6,90.3c-0.8,0-1.5-0.7-1.5-1.5c0-0.8,0.7-1.5,1.5-1.5c0.8,0,1.5,0.7,1.5,1.5C110.1,89.6,109.5,90.3,108.6,90.3z"/>
				</g>
				<g>
					<path class="st3" d="M108.9,50.9l1.5,3.7l-1,1.1l-0.4,0.2l0,0l-5.4,2.7l0.9,2.1l0.6-0.2l0,0l8.6-2.9
						C114.4,55.9,114.8,52.8,108.9,50.9z"/>
				</g>
				<g>
					<path class="st3" d="M109.7,75.4c0,0.7-0.6,1.2-1.2,1.2l0,0c-0.7,0-1.2-0.6-1.2-1.2v-9.9c0-0.7,0.6-1.2,1.2-1.2l0,0
						c0.7,0,1.2,0.6,1.2,1.2V75.4z"/>
				</g>
				<g>
					<path class="st3" d="M109.6,58.9c0.2,0.5-0.1,1-0.6,1.2l-0.9,0.4c-0.5,0.2-1-0.1-1.2-0.6l0,0c-0.2-0.5,0.1-1,0.6-1.2l0.9-0.4
						C108.8,58.2,109.4,58.4,109.6,58.9L109.6,58.9z"/>
				</g>
				<g>
					<g>
						<path class="st3" d="M107.9,60.3c0,0.1,0,0.2-0.1,0.3l0,0c-0.1,0-0.2,0-0.3-0.1L107,59c0-0.1,0-0.2,0.1-0.3l0,0
							c0.1,0,0.2,0,0.3,0.1L107.9,60.3z"/>
					</g>
					<g>
						<path class="st3" d="M108.3,60.1c0,0.1,0,0.2-0.1,0.3l0,0c-0.1,0-0.2,0-0.3-0.1l-0.5-1.4c0-0.1,0-0.2,0.1-0.3l0,0
							c0.1,0,0.2,0,0.3,0.1L108.3,60.1z"/>
					</g>
					<g>
						<path class="st3" d="M108.9,59.9c0,0.1,0,0.2-0.1,0.3l0,0c-0.1,0-0.2,0-0.3-0.1l-0.5-1.4c0-0.1,0-0.2,0.1-0.3l0,0
							c0.1,0,0.2,0,0.3,0.1L108.9,59.9z"/>
					</g>
					<g>
						<path class="st3" d="M109.4,59.8c0,0.1,0,0.2-0.1,0.3l0,0c-0.1,0-0.2,0-0.3-0.1l-0.5-1.4c0-0.1,0-0.2,0.1-0.3l0,0
							c0.1,0,0.2,0,0.3,0.1L109.4,59.8z"/>
					</g>
				</g>
			</g>
		</g>
		<path class="st3" d="M110.7,68.7h-4c-0.1,0-0.2,0.1-0.2,0.2v2.4v17.2V89c0,1.2,1,2.3,2.3,2.3c1.2,0,2.3-1,2.3-2.3v-0.4V71.4v-2.4
			C111,68.8,110.9,68.7,110.7,68.7z"/>
		<path class="st3" d="M111,89.1v-0.4V71.4v-0.1c-1,1.1-2.2,3.1-2.7,6.5c0,0-0.4,1.9-1.8,4v6.9V89c0,1.2,1,2.3,2.3,2.3
			C109.9,91.2,111,90.3,111,89.1z"/>
		<g>
			<path class="st3" d="M109.1,81.9c0,0.3-0.2,0.5-0.5,0.5c-0.3,0-0.5-0.2-0.5-0.5c0-0.3,0.2-0.5,0.5-0.5
				C108.9,81.5,109.1,81.7,109.1,81.9z"/>
			<path class="st3" d="M109.1,84.3c0,0.3-0.2,0.5-0.5,0.5c-0.3,0-0.5-0.2-0.5-0.5s0.2-0.5,0.5-0.5C108.9,83.8,109.1,84,109.1,84.3z
				"/>
			<path class="st3" d="M109.1,86.6c0,0.3-0.2,0.5-0.5,0.5c-0.3,0-0.5-0.2-0.5-0.5s0.2-0.5,0.5-0.5
				C108.9,86.1,109.1,86.3,109.1,86.6z"/>
			<path class="st3" d="M109.1,88.9c0,0.3-0.2,0.5-0.5,0.5c-0.3,0-0.5-0.2-0.5-0.5c0-0.3,0.2-0.5,0.5-0.5
				C108.9,88.5,109.1,88.7,109.1,88.9z"/>
		</g>
	</g>
	<g>
		<rect x="61.3" y="31" class="st3" width="2.8" height="2.9"/>
		<rect x="61.3" y="33.5" class="st3" width="2.8" height="0.6"/>
		<path class="st3" d="M68.4,32.9c0,0.5-0.4,0.8-0.8,0.8h-1.4c-0.4,0-0.8-0.4-0.8-0.8v-0.8c0-0.5,0.4-0.8,0.8-0.8h1.4
			c0.4,0,0.8,0.4,0.8,0.8V32.9z"/>
		<path class="st3" d="M66.7,33.8c0,0.4-0.4,0.8-0.8,0.8h-2.1c-0.4,0-0.8-0.4-0.8-0.8v-2.5c0-0.4,0.4-0.8,0.8-0.8h2.1
			c0.4,0,0.8,0.4,0.8,0.8V33.8z"/>
		<path class="st3" d="M65.9,33.8h-2.1c-0.4,0-0.8-0.4-0.8-0.8v0.7c0,0.4,0.4,0.8,0.8,0.8h2.1c0.4,0,0.8-0.4,0.8-0.8v-0.7
			C66.7,33.5,66.3,33.8,65.9,33.8z"/>
		<polygon class="st3" points="77.9,29.8 68.1,29.8 67.2,30.3 67.2,35 68.2,35.7 68.2,36.1 68.8,36.7 78.6,36.7 78.6,30.6 		"/>
		<path class="st3" d="M87.9,48c0-8.5-2.8-14.7-2.8-14.7v-1l0.6-0.8l-0.5-0.8H73.9l-0.6,0.8H72v7.8h9.1l2.7,9l-0.9,0.9v0.9h5.5v-0.9
			L87.9,48z"/>
		<path class="st3" d="M86.1,41.7c0,0.9-0.8,1.7-1.7,1.7s-1.7-0.8-1.7-1.7c0-0.9,0.8-1.7,1.7-1.7C85.4,40.1,86.1,40.9,86.1,41.7z"/>
		<polygon class="st3" points="72,31.5 72,39.3 70.5,38.1 70.5,34.1 		"/>
		<path class="st3" d="M77.3,39.3l0.6,1.2h1.9l0.7,0.6l0.8,3c0,0,0.6,0.3,1.5,0l-1.5-4.8H77.3z"/>
		<path class="st3" d="M73,34.5c0,0.2-0.1,0.3-0.3,0.3l0,0c-0.2,0-0.3-0.1-0.3-0.3v-2c0-0.2,0.1-0.3,0.3-0.3l0,0
			c0.2,0,0.3,0.1,0.3,0.3V34.5z"/>
		<path class="st3" d="M73,37.9c0,0.2-0.1,0.3-0.3,0.3l0,0c-0.2,0-0.3-0.1-0.3-0.3v-2c0-0.2,0.1-0.3,0.3-0.3l0,0
			c0.2,0,0.3,0.1,0.3,0.3V37.9z"/>
		<path class="st3" d="M82.2,40c-0.2-0.7-1-0.8-1-0.8h-3.9l0.2,0.6h3.1l1.3,4.4c0.2,0,0.4,0,0.7-0.1c0.3-0.2,0.3-0.7,0.3-0.7
			C82.8,43,82.2,40,82.2,40z"/>
		<path class="st3" d="M85.6,41.7c0,0.6-0.5,1.1-1.1,1.1c-0.6,0-1.1-0.5-1.1-1.1c0-0.6,0.5-1.1,1.1-1.1
			C85.1,40.7,85.6,41.2,85.6,41.7z"/>
		<path class="st3" d="M85.3,41.7c0,0.5-0.4,0.8-0.8,0.8s-0.8-0.4-0.8-0.8c0-0.5,0.4-0.8,0.8-0.8C84.9,41,85.3,41.4,85.3,41.7z"/>
		<path class="st3" d="M79.9,36.4c0,0.4-0.4,0.8-0.8,0.8H75c-0.4,0-0.8-0.4-0.8-0.8v-2.6c0-0.4,0.4-0.8,0.8-0.8h4.1
			c0.4,0,0.8,0.4,0.8,0.8V36.4z"/>
		<g>
			<path class="st3" d="M82.7,33.3c0,0.1-0.1,0.2-0.2,0.2H81c-0.1,0-0.2-0.1-0.2-0.2l0,0c0-0.1,0.1-0.2,0.2-0.2h1.6
				C82.6,33.1,82.7,33.2,82.7,33.3L82.7,33.3z"/>
			<path class="st3" d="M82.7,34c0,0.1-0.1,0.2-0.2,0.2H81c-0.1,0-0.2-0.1-0.2-0.2l0,0c0-0.1,0.1-0.2,0.2-0.2h1.6
				C82.6,33.8,82.7,33.9,82.7,34L82.7,34z"/>
			<path class="st3" d="M82.7,34.8c0,0.1-0.1,0.2-0.2,0.2H81c-0.1,0-0.2-0.1-0.2-0.2l0,0c0-0.1,0.1-0.2,0.2-0.2h1.6
				C82.6,34.6,82.7,34.7,82.7,34.8L82.7,34.8z"/>
			<path class="st3" d="M82.7,35.5c0,0.1-0.1,0.2-0.2,0.2H81c-0.1,0-0.2-0.1-0.2-0.2l0,0c0-0.1,0.1-0.2,0.2-0.2h1.6
				C82.6,35.2,82.7,35.3,82.7,35.5L82.7,35.5z"/>
			<path class="st3" d="M82.7,36.2c0,0.1-0.1,0.2-0.2,0.2H81c-0.1,0-0.2-0.1-0.2-0.2l0,0c0-0.1,0.1-0.2,0.2-0.2h1.6
				C82.6,36,82.7,36.1,82.7,36.2L82.7,36.2z"/>
			<path class="st3" d="M82.7,36.9c0,0.1-0.1,0.2-0.2,0.2H81c-0.1,0-0.2-0.1-0.2-0.2l0,0c0-0.1,0.1-0.2,0.2-0.2h1.6
				C82.6,36.7,82.7,36.8,82.7,36.9L82.7,36.9z"/>
		</g>
		<polygon class="st3" points="71.2,30.9 72,31.5 73.3,31.5 73.9,30.6 75.7,30.6 75.7,29.8 68.1,29.8 67.2,30.3 68.3,30.9 		"/>
		<polygon class="st3" points="68.2,35.7 68.8,35.7 68.8,36.7 68.2,36.1 		"/>
		<polygon class="st3" points="82.9,49.3 87.9,48 88.4,49.3 88.4,50.2 82.9,50.2 		"/>
		<polygon class="st3" points="82.9,49.6 88.4,49.3 88.4,50.2 82.9,50.2 		"/>
		<g>
			<path class="st3" d="M82.6,31.7c0.1,0,0.2-0.1,0.2-0.2v-0.8h-0.4v0.8C82.4,31.6,82.5,31.7,82.6,31.7z"/>
			<path class="st3" d="M81.8,31.7c0.1,0,0.2-0.1,0.2-0.2v-0.8h-0.4v0.8C81.6,31.6,81.7,31.7,81.8,31.7z"/>
			<path class="st3" d="M83.3,31.7c0.1,0,0.2-0.1,0.2-0.2v-0.8H83v0.8C83,31.6,83.1,31.7,83.3,31.7z"/>
			<path class="st3" d="M81.2,31.5v-0.8h-0.4v0.8c0,0.1,0.1,0.2,0.2,0.2S81.2,31.6,81.2,31.5z"/>
			<path class="st3" d="M80.3,31.7c0.1,0,0.2-0.1,0.2-0.2v-0.8h-0.4v0.8C80.1,31.6,80.2,31.7,80.3,31.7z"/>
			<path class="st3" d="M84,31.7c0.1,0,0.2-0.1,0.2-0.2v-0.8h-0.4v0.8C83.8,31.6,83.9,31.7,84,31.7z"/>
		</g>
		<polygon class="st3" points="61.3,31 60.7,31.5 60.7,33.5 61.3,34 		"/>
		<polygon class="st3" points="61.3,33.5 60.7,33 60.7,33.5 61.3,34 		"/>
		<polygon class="st3" points="59.1,32.1 59.1,33 60.7,33.4 60.7,33 60.7,32.1 60.7,31.8 		"/>
		<polygon class="st3" points="59.1,33 60.7,33.4 60.7,33 60.7,32.9 59.1,32.5 		"/>
	</g>
	<g>
		<path class="st3" d="M76.5,115c0,0.3-0.2,0.5-0.5,0.5l0,0c-0.3,0-0.5-0.2-0.5-0.5V91.2c0-0.3,0.2-0.5,0.5-0.5l0,0
			c0.3,0,0.5,0.2,0.5,0.5V115z"/>
		<path class="st3" d="M71.8,113.9c-0.1,2.8,0.1,8.9,4.3,10.3c4.2-1.3,4.4-7.4,4.3-10.3H71.8z"/>
		<path class="st3" d="M72.6,115c-0.1,3,0.1,8,3.5,9.1c3.4-1,3.6-6,3.5-9.1C79.5,115,72.6,115,72.6,115z"/>
		<path class="st3" d="M80.8,113.7c0-0.1-0.1-0.2-0.2-0.2h-9c-0.1,0-0.2,0.1-0.2,0.2l0,0c0,0.1,0.1,0.2,0.2,0.2h9
			C80.7,113.9,80.8,113.8,80.8,113.7L80.8,113.7z"/>
		<path class="st3" d="M76.1,90.7c-0.3,0-0.5,0.2-0.5,0.5v17h1v-17C76.5,90.9,76.3,90.7,76.1,90.7z"/>
		<path class="st3" d="M76.9,92c0,0.1-0.1,0.2-0.2,0.2h-1.2c-0.1,0-0.2-0.1-0.2-0.2v-2.5c0-0.1,0.1-0.2,0.2-0.2h1.2
			c0.1,0,0.2,0.1,0.2,0.2V92z"/>
		<path class="st4" d="M74,85.8c0,2.4,0.9,4.3,2.1,4.3s2.1-1.9,2.1-4.3H74z"/>
		<path class="st3" d="M78.8,85.9c0,0.1-0.1,0.2-0.2,0.2h-5.2c-0.1,0-0.2-0.1-0.2-0.2v-0.6c0-0.1,0.1-0.2,0.2-0.2h5.2
			c0.1,0,0.2,0.1,0.2,0.2V85.9z"/>
	</g>
</g>
<g>
	<path class="st2" d="M181.9,104.3c-0.1-2.5-0.3-5.4-0.3-7.6h-0.1c-0.6,2.1-1.3,4.3-2.2,6.7l-3.1,8.6h-1.7l-2.9-8.4
		c-0.8-2.5-1.5-4.8-2-6.9h-0.1c-0.1,2.2-0.2,5.2-0.3,7.8l-0.5,7.6h-2.2l1.2-17.7h2.9l3,8.5c0.7,2.2,1.3,4.1,1.8,5.9h0.1
		c0.4-1.8,1.1-3.7,1.9-5.9l3.1-8.5h2.9l1.1,17.7h-2.2L181.9,104.3z"/>
	<path class="st2" d="M190.4,94.4v17.7h-2.3V94.4H190.4z"/>
	<path class="st2" d="M194.4,112.1V94.4h2.5l5.7,8.9c1.3,2.1,2.3,3.9,3.2,5.7l0.1,0c-0.2-2.4-0.3-4.5-0.3-7.3v-7.4h2.1v17.7h-2.3
		l-5.6-9c-1.2-2-2.4-4-3.3-5.9l-0.1,0c0.1,2.2,0.2,4.3,0.2,7.3v7.5H194.4z"/>
	<path class="st2" d="M220.7,103.8h-6.9v6.4h7.6v1.9h-9.9V94.4h9.5v1.9h-7.3v5.6h6.9V103.8z"/>
	<path class="st2" d="M224.5,94.6c1.2-0.2,2.8-0.4,4.4-0.4c2.4,0,4,0.4,5.1,1.4c0.9,0.8,1.4,2,1.4,3.4c0,2.3-1.5,3.9-3.3,4.5v0.1
		c1.4,0.5,2.2,1.7,2.6,3.6c0.6,2.5,1,4.2,1.4,4.8h-2.4c-0.3-0.5-0.7-2-1.2-4.2c-0.5-2.4-1.5-3.4-3.5-3.4h-2.1v7.6h-2.3V94.6z
		 M226.8,102.7h2.3c2.4,0,4-1.3,4-3.4c0-2.3-1.7-3.3-4.1-3.3c-1.1,0-1.9,0.1-2.3,0.2V102.7z"/>
	<path class="st2" d="M240.9,94.4v17.7h-2.3V94.4H240.9z"/>
	<path class="st2" d="M247.7,106.5l-1.8,5.6h-2.4l6-17.7h2.8l6,17.7h-2.4l-1.9-5.6H247.7z M253.5,104.7l-1.7-5.1
		c-0.4-1.2-0.7-2.2-0.9-3.2h-0.1c-0.3,1-0.6,2.1-0.9,3.2l-1.7,5.1H253.5z"/>
	<path class="st2" d="M269.2,112.1v-7.5l-5.6-10.2h2.6l2.5,4.9c0.7,1.3,1.2,2.4,1.8,3.6h0.1c0.5-1.2,1.1-2.3,1.8-3.6l2.5-4.9h2.6
		l-5.9,10.1v7.5H269.2z"/>
	<path class="st2" d="M285,94.4h9.5v1.9h-7.2v5.9h6.7v1.9h-6.7v8H285V94.4z"/>
	<path class="st2" d="M306.9,103.8H300v6.4h7.6v1.9h-9.9V94.4h9.5v1.9H300v5.6h6.9V103.8z"/>
	<path class="st2" d="M310.6,94.6c1.2-0.2,2.8-0.4,4.4-0.4c2.4,0,4,0.4,5.1,1.4c0.9,0.8,1.4,2,1.4,3.4c0,2.3-1.5,3.9-3.3,4.5v0.1
		c1.4,0.5,2.2,1.7,2.6,3.6c0.6,2.5,1,4.2,1.4,4.8h-2.4c-0.3-0.5-0.7-2-1.2-4.2c-0.5-2.4-1.5-3.4-3.5-3.4h-2.1v7.6h-2.3V94.6z
		 M312.9,102.7h2.3c2.4,0,4-1.3,4-3.4c0-2.3-1.7-3.3-4.1-3.3c-1.1,0-1.9,0.1-2.3,0.2V102.7z"/>
	<path class="st2" d="M324.7,94.6c1.2-0.2,2.8-0.4,4.4-0.4c2.4,0,4,0.4,5.1,1.4c0.9,0.8,1.4,2,1.4,3.4c0,2.3-1.5,3.9-3.3,4.5v0.1
		c1.4,0.5,2.2,1.7,2.6,3.6c0.6,2.5,1,4.2,1.4,4.8h-2.4c-0.3-0.5-0.7-2-1.2-4.2c-0.5-2.4-1.5-3.4-3.5-3.4H327v7.6h-2.3V94.6z
		 M327,102.7h2.3c2.4,0,4-1.3,4-3.4c0-2.3-1.7-3.3-4.1-3.3c-1.1,0-1.9,0.1-2.3,0.2V102.7z"/>
	<path class="st2" d="M347.9,103.8h-6.9v6.4h7.6v1.9h-9.9V94.4h9.5v1.9h-7.3v5.6h6.9V103.8z"/>
	<path class="st2" d="M355.4,96.3h-5.4v-1.9h13.1v1.9h-5.4v15.7h-2.3V96.3z"/>
	<path class="st2" d="M374.3,103.8h-6.9v6.4h7.6v1.9h-9.9V94.4h9.5v1.9h-7.3v5.6h6.9V103.8z"/>
	<path class="st2" d="M378,94.6c1.2-0.2,2.8-0.4,4.4-0.4c2.4,0,4,0.4,5.1,1.4c0.9,0.8,1.4,2,1.4,3.4c0,2.3-1.5,3.9-3.3,4.5v0.1
		c1.4,0.5,2.2,1.7,2.6,3.6c0.6,2.5,1,4.2,1.4,4.8h-2.4c-0.3-0.5-0.7-2-1.2-4.2c-0.5-2.4-1.5-3.4-3.5-3.4h-2.1v7.6H378V94.6z
		 M380.3,102.7h2.3c2.4,0,4-1.3,4-3.4c0-2.3-1.7-3.3-4.1-3.3c-1.1,0-1.9,0.1-2.3,0.2V102.7z"/>
	<path class="st2" d="M394.4,94.4v17.7h-2.3V94.4H394.4z"/>
	<path class="st2" d="M401.2,106.5l-1.8,5.6H397l6-17.7h2.8l6,17.7h-2.4l-1.9-5.6H401.2z M407,104.7l-1.7-5.1
		c-0.4-1.2-0.7-2.2-0.9-3.2h-0.1c-0.3,1-0.6,2.1-0.9,3.2l-1.7,5.1H407z"/>
</g>
<g>
	<path class="st1" d="M203.7,35.4l-14.5,26.7v19.6h-13.8V62.1l-15.6-26.7h15.5l8.1,15.3l7.8-15.3H203.7z"/>
	<path class="st2" d="M228.5,81.7l-2.6-9.1h-12.4l-2.8,9.1h-11.5l14.3-46.3h15L243,81.7H228.5z M215.9,62.5h7.5l-3.7-13.4
		L215.9,62.5z"/>
	<path class="st2" d="M288.5,81.7h-15.8L266,64h-4.5v17.7h-14.2V35.4h24.2c5.3,0,9.5,1.2,12.4,3.7c3,2.5,4.4,5.8,4.4,9.9
		c0,2.7-0.5,5-1.6,7.1c-1.1,2-3.3,3.8-6.6,5.4L288.5,81.7z M261.5,54.1h6.1c1.8,0,3.2-0.4,4.3-1.1c1.1-0.7,1.6-1.8,1.6-3.3
		c0-3-1.8-4.4-5.5-4.4h-6.5V54.1z"/>
	<path class="st2" d="M330,70.7v11.1h-34.8V35.4H330v10.7h-20.9v6.7H326v10.3h-16.9v7.6H330z"/>
	<path class="st2" d="M361.1,64l13,0.8c-0.6,5.7-2.7,10-6.3,13.1c-3.6,3-8,4.5-13.2,4.5c-6.3,0-11.4-2.1-15.2-6.2
		c-3.9-4.2-5.8-9.9-5.8-17.2c0-7.3,1.8-13.1,5.5-17.6c3.7-4.5,8.8-6.7,15.3-6.7c6.1,0,10.8,1.7,14.1,5.1c3.3,3.4,5.1,7.9,5.6,13.5
		L360.8,54c0-3.1-0.6-5.3-1.8-6.7c-1.2-1.4-2.6-2.1-4.2-2.1c-4.5,0-6.7,4.5-6.7,13.5c0,5,0.6,8.5,1.7,10.3c1.2,1.8,2.8,2.7,4.9,2.7
		C358.5,71.7,360.6,69.2,361.1,64z"/>
	<path class="st2" d="M418.5,35.4v46.3h-14.2v-18h-10.9v18h-14.2V35.4h14.2v17h10.9v-17H418.5z"/>
</g>
</svg>
