<?xml version="1.0" encoding="utf-8"?>
<!-- Generator: Adobe Illustrator 26.3.0, SVG Export Plug-In . SVG Version: 6.00 Build 0)  -->
<svg version="1.1" id="Capa_1" xmlns="http://www.w3.org/2000/svg" xmlns:xlink="http://www.w3.org/1999/xlink" x="0px" y="0px"
	 viewBox="0 0 605.8 143.6" style="enable-background:new 0 0 605.8 143.6;" xml:space="preserve">
<style type="text/css">
	.st0{fill:#4F46E5;}
	.st1{fill:#FFFFFF;}
</style>
<g>
	<path class="st0" d="M174.7,39.6l26,54.2h0.5l20.1-54.2h13.5l-33.2,80.3c-1.8,4.3-4.6,7.7-8.5,10.2c-3.9,2.5-8.1,3.7-12.7,3.7
		c-1.7,0-3.2-0.1-4.4-0.4c-1.3-0.3-2.7-0.7-4.4-1.3l1.9-9.7c2,0.4,3.7,0.7,5.3,0.7c3.1,0,5.9-0.7,8.2-2c2.3-1.3,4.2-3.8,5.7-7.5
		l2.4-6.1l-34.2-67.9H174.7z"/>
	<path class="st0" d="M246.1,44.1c5-2.1,9.7-3.6,13.9-4.5c4.3-0.9,9.2-1.4,14.8-1.4c10,0,17.3,1.8,22,5.5c4.7,3.7,7.1,9.7,7.1,17.9
		v28.2c0,3.2,0.5,5.4,1.6,6.5c1.1,1.1,3.3,1.7,6.7,1.7v8.9c-1.5,0.4-2.9,0.8-4.2,1c-1.3,0.2-2.9,0.3-4.6,0.3c-2.8,0-5-1-6.6-3
		c-1.6-2-2.6-4.7-2.8-8.1c-6.2,7.4-15.5,11.1-27.8,11.1c-7.9,0-13.9-1.8-18-5.5c-4.1-3.7-6.1-8.7-6.1-15.1c0-3.1,0.5-5.8,1.4-8.4
		c0.9-2.5,2.6-5.1,4.9-7.7c3.1-0.9,6.1-1.7,9.2-2.4c3.1-0.7,6.4-1.3,9.9-1.8c3.5-0.4,7.2-0.8,11.2-1.1c4-0.3,8.3-0.4,13.1-0.5v-3.8
		c0-4.7-1.3-8.1-3.8-10.2c-2.6-2.2-7.1-3.2-13.7-3.2c-8.4,0-16.9,1.8-25.5,5.5L246.1,44.1z M291.8,74.9c-7.8,0.2-14.3,0.6-19.7,1.3
		c-5.3,0.7-10.2,1.6-14.6,2.7c-1.8,2.1-2.7,4.8-2.7,8c0,3.7,1.1,6.4,3.4,8.2c2.3,1.8,5.5,2.7,9.7,2.7c4.5,0,8.6-0.7,12.4-2
		c3.8-1.3,7.6-3.6,11.3-6.8V74.9z"/>
	<path class="st0" d="M334.9,39.6l0.8,10.6c3.2-4.3,6.7-7.4,10.5-9.2c3.8-1.8,8.1-2.8,12.9-2.8c4.7,0,8.6,0.7,11.7,2.1
		c3.1,1.4,6.2,3.9,9,7.5l-8.5,7.7c-1.9-2.3-4-4.1-6.3-5.2c-2.3-1.1-4.8-1.7-7.3-1.7c-5,0-9.1,1-12.3,3c-3.1,2-6.2,5-9,9v46.3H324
		V39.6H334.9z"/>
	<path class="st0" d="M395.7,76.3c0.3,3.7,1.1,6.9,2.6,9.6c1.4,2.7,3.3,5,5.7,6.7c2.3,1.8,5,3.1,8,3.9c3,0.9,6.1,1.3,9.4,1.3
		c4.8,0,9-0.4,12.6-1.1c3.6-0.8,7.2-2.1,10.7-4.1l3.6,10.2c-2.2,1.1-4.4,2-6.4,2.6c-2,0.7-4.1,1.2-6.3,1.6c-2.2,0.4-4.5,0.7-6.9,0.9
		c-2.5,0.2-5.2,0.3-8.2,0.3c-6.1,0-11.5-0.8-16.2-2.4c-4.7-1.6-8.6-4-11.8-7c-3.2-3.1-5.6-6.7-7.3-11.1c-1.7-4.3-2.5-9.1-2.5-14.4
		c0-5.2,0.9-10,2.8-14.4c1.8-4.4,4.4-8.1,7.7-11.1c3.3-3.1,7.2-5.4,11.7-7.1c4.4-1.7,9.3-2.6,14.6-2.6c5.4,0,10.1,0.7,14,2.1
		c4,1.4,7.2,3.3,9.8,5.8c2.6,2.5,4.5,5.4,5.8,8.8c1.3,3.4,1.9,7.1,1.9,11.2c0,1.9-0.1,3.6-0.3,5.2c-0.2,1.6-0.5,3.3-0.9,5.1H395.7z
		 M439,66.6c-0.1-6.7-1.7-11.4-5-14.3c-3.2-2.8-8.5-4.2-15.7-4.2c-2.7,0-5.4,0.4-8,1.2c-2.6,0.8-5,1.9-7.1,3.5
		c-2.1,1.5-3.8,3.5-5.2,5.8c-1.4,2.3-2.2,5-2.5,8.1H439z"/>
	<path class="st0" d="M520.1,52.6c-3-1.5-6-2.6-9-3.4c-3-0.7-6.2-1.1-9.6-1.1c-8.4,0-15,2.2-19.7,6.5c-4.7,4.3-7.1,10.5-7.1,18.7
		c0,3.7,0.7,7,2,10.1c1.3,3,3.1,5.6,5.4,7.8c2.3,2.2,4.9,3.8,7.9,5c3,1.2,6.2,1.7,9.6,1.7c8.4,0,16-1.9,22.9-5.7l3.8,9.9
		c-4.3,2.4-8.6,4-12.9,4.8c-4.3,0.9-9.1,1.3-14.4,1.3c-5.7,0-10.8-0.9-15.3-2.6c-4.5-1.8-8.4-4.2-11.6-7.3c-3.2-3.1-5.7-6.8-7.4-11
		c-1.7-4.2-2.6-8.8-2.6-13.7c0-5.3,1-10.1,3.1-14.5c2-4.4,4.8-8.1,8.4-11.2c3.5-3.1,7.6-5.5,12.3-7.2c4.7-1.7,9.7-2.6,15.1-2.6
		c5.4,0,10,0.4,13.8,1.2c3.8,0.8,7.4,2.1,10.8,3.9L520.1,52.6z"/>
	<path class="st0" d="M551.6,8.6v40.7c3.1-4,6.9-6.8,11.1-8.5c4.3-1.7,8.7-2.6,13.3-2.6c9.3,0,16.3,2.5,21,7.6
		c4.6,5.1,6.9,12.4,6.9,21.9v39.2h-12.5V67.7c0-5.9-1.1-10.6-3.4-14c-2.2-3.4-6.2-5.1-12-5.1c-5,0-9.5,1-13.5,3
		c-4,2-7.6,4.9-10.8,8.9v46.5h-12.5V8.6H551.6z"/>
</g>
<ellipse class="st0" cx="73" cy="72.2" rx="68.9" ry="68.6"/>
<path class="st1" d="M107.7,62.3c-4.8,4.8-11.5,6.5-17.4,5.1L68.2,89.6c1.4,5.9-0.3,12.6-5.1,17.4c-4.8,4.8-11.5,6.5-17.4,5.1
	l9.3-9.3c0.7-0.7,1.1-1.7,1.2-2.7c0-1.1-0.4-2.2-1.2-3.1l-6.4-6.4c-0.8-0.8-2-1.2-3.1-1.2c-1,0.1-1.9,0.4-2.7,1.2l-9.5,9.5
	c-1.7-6.1,0-13,5-18c5-5,11.9-6.6,18-5L78,55.5c-1.7-6.1,0-13,5-18c5-5,12.1-6.7,18.2-4.9l-11,11c-0.5,0.6-0.9,1.2-1.1,2
	c-0.3,1.3,0.1,2.8,1.1,3.8l6.3,6.3c1,1,2.5,1.4,3.8,1.1c0.7-0.1,1.4-0.5,2-1.1l10.6-10.6C114.2,51,112.5,57.5,107.7,62.3z"/>
</svg>
