<?xml version="1.0" encoding="utf-8"?>
<!-- Generator: Adobe Illustrator 26.3.0, SVG Export Plug-In . SVG Version: 6.00 Build 0)  -->
<svg version="1.1" id="Capa_1" xmlns="http://www.w3.org/2000/svg" xmlns:xlink="http://www.w3.org/1999/xlink" x="0px" y="0px"
	 viewBox="0 0 2200 2200" style="enable-background:new 0 0 2200 2200;" xml:space="preserve">
<style type="text/css">
	.st0{display:none;}
	.st1{fill:#CBCFD3;}
	.st2{fill:#C1C1C1;}
	.st3{fill:#353535;}
</style>
<g id="background" class="st0">
</g>
<g id="objects">
	<g>
		<g>
			<path class="st1" d="M1586.6,1049l-525,525c-40.5,40.5-106.2,40.5-146.7,0l-301.5-301.5c-40.5-40.5-40.5-106.2,0-146.7l525-525
				c24.4-24.4,59.2-35,93-28.5l252.7,48.8c10.7,2.1,20.8,5.8,30,10.8l-64.8,64.8c-35-17.7-78.9-11.9-108.2,17.4
				c-36.5,36.5-36.5,95.7,0,132.2s95.7,36.5,132.2,0c29.3-29.3,35.1-73.2,17.4-108.2l64.8-64.8c5,9.2,8.7,19.3,10.8,30l48.8,252.7
				C1621.6,989.8,1611,1024.6,1586.6,1049z"/>
			<path class="st1" d="M2072.7,1010.6L1023.2,2060c-81,81-212.2,81-293.2,0l-602.7-602.7c-81-81-81-212.3,0-293.2L1176.8,114.7
				c48.7-48.7,118.4-70,185.9-57l505.1,97.6c21.4,4.1,41.6,11.5,60,21.6l-129.5,129.5c-70.1-35.4-157.7-23.8-216.3,34.7
				c-72.9,72.9-72.9,191.2,0,264.2c72.9,72.9,191.2,72.9,264.2,0c58.5-58.5,70.1-146.2,34.7-216.3l129.5-129.5
				c10.1,18.5,17.5,38.6,21.6,60l97.6,505.1C2142.7,892.3,2121.3,961.9,2072.7,1010.6z"/>
			<path class="st2" d="M1855.6,414.4l-29.9,29.9c9.9,38.2-0.1,80.5-30.1,110.4c-45,45-118,45-163,0s-45-118,0-163
				c29.9-29.9,72.2-40,110.4-30.1l29.9-29.9c-55.5-23.1-121.9-12-167.1,33.1c-59.8,59.8-59.8,156.7,0,216.5
				c59.8,59.8,156.7,59.8,216.5,0C1867.6,536.3,1878.7,469.9,1855.6,414.4z"/>
			<path class="st3" d="M1751.2,438.1l-1.9-1.9c-10-10-10-26.1,0-36.1l338.2-338.2c10-10,26.1-10,36.1,0l1.9,1.9
				c10,10,10,26.1,0,36.1l-338.2,338.2C1777.3,448,1761.2,448,1751.2,438.1z"/>
		</g>
	</g>
</g>
</svg>
